<svg width="20" height="19" viewBox="0 0 20 19" fill="none" xmlns="http://www.w3.org/2000/svg">
<path d="M9.96762 3.19854C10.8974 3.19854 11.6511 2.48253 11.6511 1.59927C11.6511 0.716018 10.8974 0 9.96762 0C9.03788 0 8.28418 0.716018 8.28418 1.59927C8.28418 2.48253 9.03788 3.19854 9.96762 3.19854Z" fill="white"/>
<path d="M10.5541 3.96111C10.1346 3.88021 9.67855 3.88376 9.26656 3.97601C6.46779 4.28757 5.55902 7.36511 5.81563 9.71168C5.92693 10.7262 7.61038 10.7368 7.49795 9.71168C7.40457 8.85651 7.44454 7.56595 7.92301 6.64868C7.92301 7.7636 7.92301 8.87851 7.92301 9.99307C7.92301 10.0325 7.92712 10.0694 7.92899 10.1073C7.92787 10.1254 7.92339 10.1407 7.92339 10.1591C7.92339 12.813 7.91853 15.4658 7.80311 18.1175C7.75194 19.2963 9.67593 19.2917 9.72673 18.1175C9.81712 16.0392 9.83991 13.9598 9.84514 11.8801C9.93627 11.8858 10.0274 11.8858 10.1186 11.8808C10.1242 13.9606 10.1462 16.0399 10.2358 18.1175C10.287 19.2917 12.211 19.2963 12.1595 18.1175C12.044 15.4658 12.0399 12.813 12.0399 10.1591C12.0399 10.0768 12.0283 10.0019 12.0108 9.9299C12.0082 8.77773 11.9619 7.6245 11.9761 6.47304C12.549 7.39456 12.6013 8.80009 12.502 9.71097C12.3892 10.7354 14.073 10.7251 14.1843 9.71097C14.4469 7.31579 13.4944 4.1584 10.5541 3.96111Z" fill="white"/>
</svg>
