<svg width="33" height="33" viewBox="0 0 33 33" fill="none" xmlns="http://www.w3.org/2000/svg">
<path d="M16.5 33C25.6127 33 33 25.6127 33 16.5C33 7.3873 25.6127 0 16.5 0C7.3873 0 0 7.3873 0 16.5C0 25.6127 7.3873 33 16.5 33Z" fill="white"/>
<path d="M23.6635 20.8545L21.347 18.5378C20.8856 18.0782 20.1215 18.0922 19.644 18.5698L18.4769 19.7366C18.4032 19.696 18.3269 19.6535 18.2466 19.6085C17.5096 19.2002 16.5009 18.6405 15.4395 17.5782C14.3749 16.5138 13.8147 15.5035 13.4051 14.7661C13.3618 14.6879 13.3204 14.6126 13.2795 14.5411L14.0628 13.7589L14.4479 13.3734C14.9261 12.895 14.9393 12.1312 14.479 11.6703L12.1624 9.35324C11.7021 8.893 10.9377 8.90696 10.4595 9.3853L9.80657 10.0419L9.82441 10.0596C9.6055 10.339 9.42256 10.6611 9.28643 11.0086C9.16094 11.3393 9.08281 11.6548 9.04709 11.9711C8.74121 14.5069 9.9 16.8244 13.0448 19.9693C17.3919 24.3161 20.8951 23.9877 21.0463 23.9717C21.3754 23.9323 21.6909 23.8537 22.0114 23.7292C22.3558 23.5947 22.6778 23.412 22.9569 23.1935L22.9712 23.2062L23.6326 22.5586C24.1098 22.0803 24.1236 21.3162 23.6635 20.8545Z" fill="#0091E0"/>
</svg>
