<svg width="33" height="33" viewBox="0 0 33 33" fill="none" xmlns="http://www.w3.org/2000/svg">
<path d="M16.5 33C25.6127 33 33 25.6127 33 16.5C33 7.3873 25.6127 0 16.5 0C7.3873 0 0 7.3873 0 16.5C0 25.6127 7.3873 33 16.5 33Z" fill="white"/>
<path d="M19.8437 9H13.1563C12.5991 9 12.1431 9.45557 12.1431 10.0131V22.9864C12.1431 23.544 12.5991 24 13.1563 24H19.8437C20.4008 24 20.8568 23.5449 20.8568 22.9869V10.0131C20.8568 9.45557 20.4008 9 19.8437 9ZM15.4303 9.73029H17.5697C17.6374 9.73029 17.6923 9.78514 17.6923 9.85329C17.6923 9.921 17.6374 9.97586 17.5697 9.97586H15.4303C15.3626 9.97586 15.3077 9.921 15.3077 9.85329C15.3077 9.78514 15.3626 9.73029 15.4303 9.73029ZM16.5 23.4934C16.2201 23.4934 15.9934 23.2667 15.9934 22.9864C15.9934 22.7061 16.2201 22.4799 16.5 22.4799C16.7798 22.4799 17.0066 22.7061 17.0066 22.9864C17.0066 23.2667 16.7798 23.4934 16.5 23.4934ZM20.1518 22.125H12.8481V10.6067H20.1518V22.125Z" fill="#0091E0"/>
</svg>
