<svg width="33" height="33" viewBox="0 0 33 33" fill="none" xmlns="http://www.w3.org/2000/svg">
<path d="M16.5 33C25.6127 33 33 25.6127 33 16.5C33 7.3873 25.6127 0 16.5 0C7.3873 0 0 7.3873 0 16.5C0 25.6127 7.3873 33 16.5 33Z" fill="white"/>
<path d="M10.7859 14.3691C10.9648 14.4953 11.5041 14.8703 12.4038 15.4937C13.3035 16.1172 13.9928 16.5972 14.4716 16.9339C14.5242 16.9708 14.6359 17.051 14.8069 17.1747C14.9779 17.2984 15.12 17.3984 15.233 17.4746C15.3462 17.5509 15.483 17.6364 15.6435 17.7311C15.804 17.8257 15.9553 17.8968 16.0974 17.9439C16.2394 17.9914 16.371 18.0149 16.492 18.0149H16.4999H16.5078C16.6288 18.0149 16.7604 17.9914 16.9025 17.9439C17.0445 17.8968 17.1959 17.8256 17.3563 17.7311C17.5167 17.6363 17.6535 17.5508 17.7667 17.4746C17.8798 17.3984 18.0218 17.2984 18.1928 17.1747C18.3638 17.0509 18.4757 16.9708 18.5283 16.9339C19.0122 16.5972 20.2435 15.7422 22.2218 14.3689C22.6059 14.1007 22.9267 13.777 23.1845 13.3982C23.4425 13.0195 23.5713 12.6222 23.5713 12.2066C23.5713 11.8593 23.4463 11.562 23.1963 11.3148C22.9464 11.0674 22.6504 10.9438 22.3085 10.9438H10.6912C10.2861 10.9438 9.97431 11.0806 9.75595 11.3542C9.53763 11.6278 9.42847 11.9698 9.42847 12.3801C9.42847 12.7116 9.57321 13.0708 9.86255 13.4575C10.1518 13.8442 10.4597 14.1481 10.7859 14.3691Z" fill="#0091E0"/>
<path d="M22.782 15.2135C21.0564 16.3814 19.7461 17.2891 18.8518 17.9363C18.5519 18.1572 18.3086 18.3296 18.1218 18.4532C17.9349 18.5769 17.6864 18.7031 17.376 18.832C17.0656 18.961 16.7763 19.0253 16.5079 19.0253H16.4999H16.492C16.2236 19.0253 15.9342 18.961 15.6238 18.832C15.3135 18.7031 15.0648 18.5769 14.878 18.4532C14.6913 18.3296 14.4479 18.1572 14.1481 17.9363C13.4377 17.4155 12.1303 16.5077 10.2257 15.2135C9.92568 15.0136 9.65998 14.7846 9.42847 14.5269V20.7931C9.42847 21.1406 9.55206 21.4377 9.79938 21.685C10.0466 21.9324 10.344 22.056 10.6912 22.056H22.3086C22.6558 22.056 22.9531 21.9324 23.2004 21.685C23.4478 21.4376 23.5713 21.1406 23.5713 20.7931V14.5269C23.345 14.7793 23.082 15.0083 22.782 15.2135Z" fill="#0091E0"/>
</svg>
