<svg width="33" height="33" viewBox="0 0 33 33" fill="none" xmlns="http://www.w3.org/2000/svg">
<path d="M16.5 33C25.6127 33 33 25.6127 33 16.5C33 7.3873 25.6127 0 16.5 0C7.3873 0 0 7.3873 0 16.5C0 25.6127 7.3873 33 16.5 33Z" fill="white"/>
<path d="M16.4894 12.1143C15.426 12.1143 14.5608 12.9794 14.5608 14.0428C14.5608 15.1062 15.426 15.9714 16.4894 15.9714C17.5528 15.9714 18.4179 15.1062 18.4179 14.0428C18.4179 12.9794 17.5528 12.1143 16.4894 12.1143ZM17.4438 14.3758C17.6155 14.5475 17.6155 14.8257 17.4438 14.9974C17.358 15.0831 17.2456 15.126 17.1331 15.126C17.0207 15.126 16.9082 15.0831 16.8224 14.9974L16.4894 14.6643L16.1563 14.9974C16.0705 15.0831 15.958 15.126 15.8456 15.126C15.7331 15.126 15.6207 15.0831 15.5349 14.9974C15.3633 14.8257 15.3633 14.5475 15.5349 14.3758L15.868 14.0428L15.5349 13.7098C15.3633 13.5381 15.3633 13.2599 15.5349 13.0884C15.7065 12.9167 15.9847 12.9167 16.1563 13.0884L16.4894 13.4214L16.8224 13.0884C16.9939 12.9167 17.2723 12.9167 17.4438 13.0884C17.6155 13.2599 17.6155 13.5381 17.4438 13.7098L17.1108 14.0428L17.4438 14.3758Z" fill="#0091E0"/>
<path d="M16.4895 9C13.8783 9 11.7539 11.1327 11.7539 13.7542C11.7539 14.8112 12.4922 16.8275 13.9481 19.7471C15.0159 21.8882 16.0983 23.762 16.1091 23.7806C16.1877 23.9165 16.3326 24 16.4895 24C16.6463 24 16.7913 23.9165 16.8698 23.7806C16.8806 23.762 17.963 21.8882 19.0307 19.7471C20.4867 16.8275 21.2249 14.8112 21.2249 13.7542C21.225 11.1327 19.1007 9 16.4895 9ZM16.4895 16.9057C14.911 16.9057 13.6267 15.6214 13.6267 14.043C13.6267 12.4645 14.911 11.1802 16.4895 11.1802C18.068 11.1802 19.3522 12.4645 19.3522 14.043C19.3522 15.6214 18.068 16.9057 16.4895 16.9057Z" fill="#0091E0"/>
</svg>
