<svg width="100" height="100" viewBox="0 0 100 100" fill="none" xmlns="http://www.w3.org/2000/svg">
<path d="M98.3333 15.8334H80V2.50004C80 1.57962 79.2537 0.833374 78.3333 0.833374H21.6667C20.7463 0.833374 20 1.57962 20 2.50004V25.8334H1.66667C0.74625 25.8334 0 26.5796 0 27.5V95.8334C0 96.7538 0.74625 97.5 1.66667 97.5C2.58708 97.5 3.33333 96.7538 3.33333 95.8334V29.1667H20V97.5C20 98.4205 20.7463 99.1667 21.6667 99.1667H78.3333C79.2537 99.1667 80 98.4205 80 97.5V19.1667H96.6667V95.8334C96.6667 96.7538 97.4129 97.5 98.3333 97.5C99.2537 97.5 100 96.7538 100 95.8334V17.5C100 16.5796 99.2537 15.8334 98.3333 15.8334ZM48.3333 95.8334H41.6667V80.8334H48.3333V95.8334ZM58.3333 95.8334H51.6667V80.8334H58.3333V95.8334ZM76.6667 95.8334H61.6667V79.1667C61.6667 78.2463 60.9204 77.5 60 77.5H40C39.0796 77.5 38.3333 78.2463 38.3333 79.1667V95.8334H23.3333V4.16671H76.6667V95.8334Z" fill="#0091E0"/>
<path d="M38.3334 7.5H28.3334C27.4129 7.5 26.6667 8.24625 26.6667 9.16667V19.1667C26.6667 20.0871 27.4129 20.8333 28.3334 20.8333H38.3334C39.2538 20.8333 40 20.0871 40 19.1667V9.16667C40 8.24625 39.2538 7.5 38.3334 7.5ZM36.6667 17.5H30V10.8333H36.6667V17.5Z" fill="#0091E0"/>
<path d="M55 7.5H45C44.0796 7.5 43.3333 8.24625 43.3333 9.16667V19.1667C43.3333 20.0871 44.0796 20.8333 45 20.8333H55C55.9204 20.8333 56.6666 20.0871 56.6666 19.1667V9.16667C56.6666 8.24625 55.9204 7.5 55 7.5ZM53.3333 17.5H46.6666V10.8333H53.3333V17.5Z" fill="#0091E0"/>
<path d="M71.6667 7.5H61.6667C60.7462 7.5 60 8.24625 60 9.16667V19.1667C60 20.0871 60.7462 20.8333 61.6667 20.8333H71.6667C72.5871 20.8333 73.3333 20.0871 73.3333 19.1667V9.16667C73.3333 8.24625 72.5871 7.5 71.6667 7.5ZM70 17.5H63.3333V10.8333H70V17.5Z" fill="#0091E0"/>
<path d="M38.3334 24.1666H28.3334C27.4129 24.1666 26.6667 24.9129 26.6667 25.8333V35.8333C26.6667 36.7537 27.4129 37.5 28.3334 37.5H38.3334C39.2538 37.5 40 36.7537 40 35.8333V25.8333C40 24.9129 39.2538 24.1666 38.3334 24.1666ZM36.6667 34.1666H30V27.5H36.6667V34.1666Z" fill="#0091E0"/>
<path d="M55 24.1666H45C44.0796 24.1666 43.3333 24.9129 43.3333 25.8333V35.8333C43.3333 36.7537 44.0796 37.5 45 37.5H55C55.9204 37.5 56.6666 36.7537 56.6666 35.8333V25.8333C56.6666 24.9129 55.9204 24.1666 55 24.1666ZM53.3333 34.1666H46.6666V27.5H53.3333V34.1666Z" fill="#0091E0"/>
<path d="M71.6667 24.1666H61.6667C60.7462 24.1666 60 24.9129 60 25.8333V35.8333C60 36.7537 60.7462 37.5 61.6667 37.5H71.6667C72.5871 37.5 73.3333 36.7537 73.3333 35.8333V25.8333C73.3333 24.9129 72.5871 24.1666 71.6667 24.1666ZM70 34.1666H63.3333V27.5H70V34.1666Z" fill="#0091E0"/>
<path d="M38.3334 40.8334H28.3334C27.4129 40.8334 26.6667 41.5796 26.6667 42.5V52.5C26.6667 53.4205 27.4129 54.1667 28.3334 54.1667H38.3334C39.2538 54.1667 40 53.4205 40 52.5V42.5C40 41.5796 39.2538 40.8334 38.3334 40.8334ZM36.6667 50.8334H30V44.1667H36.6667V50.8334Z" fill="#0091E0"/>
<path d="M55 40.8334H45C44.0796 40.8334 43.3333 41.5796 43.3333 42.5V52.5C43.3333 53.4205 44.0796 54.1667 45 54.1667H55C55.9204 54.1667 56.6666 53.4205 56.6666 52.5V42.5C56.6666 41.5796 55.9204 40.8334 55 40.8334ZM53.3333 50.8334H46.6666V44.1667H53.3333V50.8334Z" fill="#0091E0"/>
<path d="M71.6667 40.8334H61.6667C60.7462 40.8334 60 41.5796 60 42.5V52.5C60 53.4205 60.7462 54.1667 61.6667 54.1667H71.6667C72.5871 54.1667 73.3333 53.4205 73.3333 52.5V42.5C73.3333 41.5796 72.5871 40.8334 71.6667 40.8334ZM70 50.8334H63.3333V44.1667H70V50.8334Z" fill="#0091E0"/>
<path d="M38.3334 57.5H28.3334C27.4129 57.5 26.6667 58.2462 26.6667 59.1667V69.1667C26.6667 70.0871 27.4129 70.8333 28.3334 70.8333H38.3334C39.2538 70.8333 40 70.0871 40 69.1667V59.1667C40 58.2462 39.2538 57.5 38.3334 57.5ZM36.6667 67.5H30V60.8333H36.6667V67.5Z" fill="#0091E0"/>
<path d="M55 57.5H45C44.0796 57.5 43.3333 58.2462 43.3333 59.1667V69.1667C43.3333 70.0871 44.0796 70.8333 45 70.8333H55C55.9204 70.8333 56.6666 70.0871 56.6666 69.1667V59.1667C56.6666 58.2462 55.9204 57.5 55 57.5ZM53.3333 67.5H46.6666V60.8333H53.3333V67.5Z" fill="#0091E0"/>
<path d="M71.6667 57.5H61.6667C60.7462 57.5 60 58.2462 60 59.1667V69.1667C60 70.0871 60.7462 70.8333 61.6667 70.8333H71.6667C72.5871 70.8333 73.3333 70.0871 73.3333 69.1667V59.1667C73.3333 58.2462 72.5871 57.5 71.6667 57.5ZM70 67.5H63.3333V60.8333H70V67.5Z" fill="#0091E0"/>
<path d="M10 32.5H8.33335C7.41294 32.5 6.66669 33.2462 6.66669 34.1667V35.8333C6.66669 36.7537 7.41294 37.5 8.33335 37.5H10C10.9204 37.5 11.6667 36.7537 11.6667 35.8333V34.1667C11.6667 33.2462 10.9204 32.5 10 32.5Z" fill="#0091E0"/>
<path d="M16.6666 32.5H15C14.0796 32.5 13.3333 33.2462 13.3333 34.1667V35.8333C13.3333 36.7537 14.0796 37.5 15 37.5H16.6666C17.5871 37.5 18.3333 36.7537 18.3333 35.8333V34.1667C18.3333 33.2462 17.5871 32.5 16.6666 32.5Z" fill="#0091E0"/>
<path d="M10 39.1666H8.33335C7.41294 39.1666 6.66669 39.9129 6.66669 40.8333V42.5C6.66669 43.4204 7.41294 44.1666 8.33335 44.1666H10C10.9204 44.1666 11.6667 43.4204 11.6667 42.5V40.8333C11.6667 39.9129 10.9204 39.1666 10 39.1666Z" fill="#0091E0"/>
<path d="M16.6666 39.1666H15C14.0796 39.1666 13.3333 39.9129 13.3333 40.8333V42.5C13.3333 43.4204 14.0796 44.1666 15 44.1666H16.6666C17.5871 44.1666 18.3333 43.4204 18.3333 42.5V40.8333C18.3333 39.9129 17.5871 39.1666 16.6666 39.1666Z" fill="#0091E0"/>
<path d="M10 45.8334H8.33335C7.41294 45.8334 6.66669 46.5796 6.66669 47.5V49.1667C6.66669 50.0871 7.41294 50.8334 8.33335 50.8334H10C10.9204 50.8334 11.6667 50.0871 11.6667 49.1667V47.5C11.6667 46.5796 10.9204 45.8334 10 45.8334Z" fill="#0091E0"/>
<path d="M16.6666 45.8334H15C14.0796 45.8334 13.3333 46.5796 13.3333 47.5V49.1667C13.3333 50.0871 14.0796 50.8334 15 50.8334H16.6666C17.5871 50.8334 18.3333 50.0871 18.3333 49.1667V47.5C18.3333 46.5796 17.5871 45.8334 16.6666 45.8334Z" fill="#0091E0"/>
<path d="M10 52.5H8.33335C7.41294 52.5 6.66669 53.2462 6.66669 54.1667V55.8333C6.66669 56.7537 7.41294 57.5 8.33335 57.5H10C10.9204 57.5 11.6667 56.7537 11.6667 55.8333V54.1667C11.6667 53.2462 10.9204 52.5 10 52.5Z" fill="#0091E0"/>
<path d="M16.6666 52.5H15C14.0796 52.5 13.3333 53.2462 13.3333 54.1667V55.8333C13.3333 56.7537 14.0796 57.5 15 57.5H16.6666C17.5871 57.5 18.3333 56.7537 18.3333 55.8333V54.1667C18.3333 53.2462 17.5871 52.5 16.6666 52.5Z" fill="#0091E0"/>
<path d="M10 59.1666H8.33335C7.41294 59.1666 6.66669 59.9129 6.66669 60.8333V62.5C6.66669 63.4204 7.41294 64.1666 8.33335 64.1666H10C10.9204 64.1666 11.6667 63.4204 11.6667 62.5V60.8333C11.6667 59.9129 10.9204 59.1666 10 59.1666Z" fill="#0091E0"/>
<path d="M16.6666 59.1666H15C14.0796 59.1666 13.3333 59.9129 13.3333 60.8333V62.5C13.3333 63.4204 14.0796 64.1666 15 64.1666H16.6666C17.5871 64.1666 18.3333 63.4204 18.3333 62.5V60.8333C18.3333 59.9129 17.5871 59.1666 16.6666 59.1666Z" fill="#0091E0"/>
<path d="M10 65.8334H8.33335C7.41294 65.8334 6.66669 66.5796 6.66669 67.5V69.1667C6.66669 70.0871 7.41294 70.8334 8.33335 70.8334H10C10.9204 70.8334 11.6667 70.0871 11.6667 69.1667V67.5C11.6667 66.5796 10.9204 65.8334 10 65.8334Z" fill="#0091E0"/>
<path d="M16.6666 65.8334H15C14.0796 65.8334 13.3333 66.5796 13.3333 67.5V69.1667C13.3333 70.0871 14.0796 70.8334 15 70.8334H16.6666C17.5871 70.8334 18.3333 70.0871 18.3333 69.1667V67.5C18.3333 66.5796 17.5871 65.8334 16.6666 65.8334Z" fill="#0091E0"/>
<path d="M10 72.5H8.33335C7.41294 72.5 6.66669 73.2462 6.66669 74.1667V75.8333C6.66669 76.7537 7.41294 77.5 8.33335 77.5H10C10.9204 77.5 11.6667 76.7537 11.6667 75.8333V74.1667C11.6667 73.2462 10.9204 72.5 10 72.5Z" fill="#0091E0"/>
<path d="M16.6666 72.5H15C14.0796 72.5 13.3333 73.2462 13.3333 74.1667V75.8333C13.3333 76.7537 14.0796 77.5 15 77.5H16.6666C17.5871 77.5 18.3333 76.7537 18.3333 75.8333V74.1667C18.3333 73.2462 17.5871 72.5 16.6666 72.5Z" fill="#0091E0"/>
<path d="M10 79.1666H8.33335C7.41294 79.1666 6.66669 79.9129 6.66669 80.8333V82.5C6.66669 83.4204 7.41294 84.1666 8.33335 84.1666H10C10.9204 84.1666 11.6667 83.4204 11.6667 82.5V80.8333C11.6667 79.9129 10.9204 79.1666 10 79.1666Z" fill="#0091E0"/>
<path d="M16.6666 79.1666H15C14.0796 79.1666 13.3333 79.9129 13.3333 80.8333V82.5C13.3333 83.4204 14.0796 84.1666 15 84.1666H16.6666C17.5871 84.1666 18.3333 83.4204 18.3333 82.5V80.8333C18.3333 79.9129 17.5871 79.1666 16.6666 79.1666Z" fill="#0091E0"/>
<path d="M10 85.8334H8.33335C7.41294 85.8334 6.66669 86.5796 6.66669 87.5V89.1667C6.66669 90.0871 7.41294 90.8334 8.33335 90.8334H10C10.9204 90.8334 11.6667 90.0871 11.6667 89.1667V87.5C11.6667 86.5796 10.9204 85.8334 10 85.8334Z" fill="#0091E0"/>
<path d="M16.6666 85.8334H15C14.0796 85.8334 13.3333 86.5796 13.3333 87.5V89.1667C13.3333 90.0871 14.0796 90.8334 15 90.8334H16.6666C17.5871 90.8334 18.3333 90.0871 18.3333 89.1667V87.5C18.3333 86.5796 17.5871 85.8334 16.6666 85.8334Z" fill="#0091E0"/>
<path d="M91.6667 22.5H85C84.0796 22.5 83.3333 23.2462 83.3333 24.1667V30.8333C83.3333 31.7537 84.0796 32.5 85 32.5H91.6667C92.5871 32.5 93.3333 31.7537 93.3333 30.8333V24.1667C93.3333 23.2462 92.5871 22.5 91.6667 22.5ZM90 29.1667H86.6666V25.8333H90V29.1667Z" fill="#0091E0"/>
<path d="M91.6667 35.8334H85C84.0796 35.8334 83.3333 36.5796 83.3333 37.5V44.1667C83.3333 45.0871 84.0796 45.8334 85 45.8334H91.6667C92.5871 45.8334 93.3333 45.0871 93.3333 44.1667V37.5C93.3333 36.5796 92.5871 35.8334 91.6667 35.8334ZM90 42.5H86.6666V39.1667H90V42.5Z" fill="#0091E0"/>
<path d="M91.6667 49.1666H85C84.0796 49.1666 83.3333 49.9129 83.3333 50.8333V57.5C83.3333 58.4204 84.0796 59.1666 85 59.1666H91.6667C92.5871 59.1666 93.3333 58.4204 93.3333 57.5V50.8333C93.3333 49.9129 92.5871 49.1666 91.6667 49.1666ZM90 55.8333H86.6666V52.5H90V55.8333Z" fill="#0091E0"/>
<path d="M91.6667 62.5H85C84.0796 62.5 83.3333 63.2462 83.3333 64.1667V70.8333C83.3333 71.7537 84.0796 72.5 85 72.5H91.6667C92.5871 72.5 93.3333 71.7537 93.3333 70.8333V64.1667C93.3333 63.2462 92.5871 62.5 91.6667 62.5ZM90 69.1667H86.6666V65.8333H90V69.1667Z" fill="#0091E0"/>
<path d="M91.6667 75.8334H85C84.0796 75.8334 83.3333 76.5796 83.3333 77.5V84.1667C83.3333 85.0871 84.0796 85.8334 85 85.8334H91.6667C92.5871 85.8334 93.3333 85.0871 93.3333 84.1667V77.5C93.3333 76.5796 92.5871 75.8334 91.6667 75.8334ZM90 82.5H86.6666V79.1667H90V82.5Z" fill="#0091E0"/>
</svg>
