<svg width="264" height="264" viewBox="0 0 264 264" fill="none" xmlns="http://www.w3.org/2000/svg">
<g clip-path="url(#clip0)">
<path d="M43.095 86.2416H8.6192C3.87957 86.2416 0 90.1016 0 94.8603V250.002C0 254.759 3.86255 258.62 8.6192 258.62H43.095C47.8516 258.62 51.7142 254.758 51.7142 250.002V94.8603C51.7142 90.1016 47.8341 86.2416 43.095 86.2416Z" fill="#0091E0"/>
<path d="M242.481 86.2415C241.093 86.0064 176.1 86.2415 176.1 86.2415L185.178 61.475C191.442 44.3696 187.387 18.2516 170.007 8.96621C164.348 5.94258 156.441 4.42406 150.066 6.02869C146.41 6.94857 143.198 9.36891 141.283 12.6117C139.08 16.3412 139.308 20.6946 138.523 24.83C136.535 35.3188 131.578 45.2915 123.903 52.7769C110.522 65.8279 68.9526 103.479 68.9526 103.479V241.383H212.602C231.986 241.394 244.689 219.748 235.129 202.841C246.524 195.542 250.422 180.168 243.748 168.365C255.144 161.066 259.041 145.693 252.367 133.889C272.03 121.296 265.456 90.1273 242.481 86.2415Z" fill="#0091E0"/>
</g>
<defs>
<clipPath id="clip0">
<rect width="264" height="264" fill="white"/>
</clipPath>
</defs>
</svg>
