<svg width="100" height="100" viewBox="0 0 100 100" fill="none" xmlns="http://www.w3.org/2000/svg">
<path d="M82.258 20.2999V6.45161H59.5143C58.7646 2.77612 55.5065 0 51.6128 0C47.7192 0 44.4611 2.77612 43.7113 6.45161H8.06445V90.3226H17.7419V100H91.9354V29.9773L82.258 20.2999ZM79.0322 21.6356L86.4289 29.0323H79.0322V21.6356ZM79.0322 17.0741L78.0871 16.129H59.6774V9.67742H79.0322V17.0741ZM11.2903 87.0968V9.67742H43.5483V16.129H17.7419V87.0968H11.2903ZM20.9677 96.7742V19.3548H43.5483V24.1935C43.5483 26.861 45.7196 29.0323 48.387 29.0323C51.0545 29.0323 53.2257 26.861 53.2257 24.1935V9.67742H49.9999V24.1935C49.9999 25.0819 49.2754 25.8065 48.387 25.8065C47.4987 25.8065 46.7741 25.0819 46.7741 24.1935V8.06452C46.7741 5.39708 48.9454 3.22581 51.6128 3.22581C54.2803 3.22581 56.4516 5.39708 56.4516 8.06452V29.0323H59.6774V19.3548H75.8064V32.2581H88.7096V96.7742H20.9677Z" fill="#0091E0"/>
<path d="M54.8386 80.6452C68.1789 80.6452 79.0321 69.7919 79.0321 56.4516C79.0321 43.1113 68.1789 32.2581 54.8386 32.2581C41.4983 32.2581 30.645 43.1113 30.645 56.4516C30.645 69.7919 41.4983 80.6452 54.8386 80.6452ZM54.8386 77.4194C48.9115 77.4194 43.5608 74.9354 39.7436 70.9677H69.9335C66.1163 74.9354 60.7657 77.4194 54.8386 77.4194ZM52.4239 54.163C50.9063 53.2794 49.9999 51.7224 49.9999 50V46.7742C49.9999 45.4228 50.5724 44.1209 51.571 43.2066C52.5807 42.2788 53.8904 41.837 55.2772 41.9552C57.7431 42.1694 59.6773 44.432 59.6773 47.1097V50C59.6773 51.7224 58.7708 53.2794 57.2532 54.163L56.4515 54.6292V59.2805L64.2325 61.503C66.2982 62.0952 67.7418 64.0097 67.7418 66.1582V67.7419H41.9353V66.1582C41.9353 64.0097 43.3789 62.0952 45.4447 61.5045L53.2257 59.2805V54.6292L52.4239 54.163ZM54.8386 35.4839C66.3998 35.4839 75.8063 44.8904 75.8063 56.4516C75.8063 61.5337 73.9871 66.1968 70.9676 69.8305V66.1582C70.9676 62.5772 68.5624 59.3884 65.1192 58.4016L59.6773 56.8485V56.4177C61.6871 54.9033 62.9031 52.5209 62.9031 50V47.1097C62.9031 42.7742 59.6757 39.1003 55.5544 38.742C53.2965 38.5419 51.0497 39.3066 49.3903 40.829C47.727 42.3529 46.7741 44.521 46.7741 46.7742V50C46.7741 52.5209 47.99 54.9033 49.9999 56.4177V56.8485L44.5579 58.4032C41.1147 59.3868 38.7095 62.5772 38.7095 66.1582V69.8305C35.6901 66.1968 33.8708 61.5337 33.8708 56.4516C33.8708 44.8904 43.2773 35.4839 54.8386 35.4839Z" fill="#0091E0"/>
<path d="M24.1934 83.871H85.4837V87.0968H24.1934V83.871Z" fill="#0091E0"/>
<path d="M24.1934 90.3226H79.0321V93.5484H24.1934V90.3226Z" fill="#0091E0"/>
<path d="M82.2583 90.3226H85.4841V93.5484H82.2583V90.3226Z" fill="#0091E0"/>
</svg>
