<svg width="264" height="264" viewBox="0 0 264 264" fill="none" xmlns="http://www.w3.org/2000/svg">
<path d="M264 132.005C264 59.0967 204.901 0.00299072 132.002 0.00299072C59.0991 0.00299072 0 59.0967 0 132.005C0 204.901 59.0991 264 132.002 264C204.901 264 264 204.901 264 132.005Z" fill="#0091E0"/>
<path d="M73.5432 92.3663C73.5432 84.9623 75.92 77.4599 80.6747 69.8606C85.4279 62.2613 92.3663 55.9677 101.485 50.9789C110.605 45.9916 121.244 43.4966 133.403 43.4966C144.703 43.4966 154.681 45.583 163.333 49.7513C171.984 53.9219 178.666 59.5923 183.383 66.7622C188.098 73.9342 190.456 81.7272 190.456 90.1449C190.456 96.7704 189.112 102.578 186.423 107.565C183.733 112.554 180.537 116.86 176.835 120.483C173.133 124.108 166.488 130.207 156.902 138.781C154.251 141.198 152.126 143.322 150.53 145.153C148.932 146.985 147.742 148.661 146.964 150.18C146.184 151.7 145.579 153.22 145.152 154.74C144.722 156.259 144.079 158.93 143.223 162.748C141.741 170.855 137.103 174.908 129.31 174.908C125.257 174.908 121.846 173.583 119.08 170.932C116.313 168.283 114.93 164.347 114.93 159.124C114.93 152.577 115.942 146.906 117.97 142.113C119.996 137.319 122.685 133.11 126.037 129.487C129.387 125.862 133.909 121.557 139.599 116.568C144.586 112.204 148.192 108.91 150.413 106.689C152.635 104.467 154.505 101.994 156.025 99.2643C157.545 96.5368 158.305 93.5758 158.305 90.379C158.305 84.144 155.985 78.8832 151.349 74.5956C146.711 70.3102 140.728 68.1653 133.403 68.1653C124.827 68.1653 118.514 70.3283 114.462 74.6542C110.409 78.98 106.98 85.3518 104.174 93.7694C101.524 102.578 96.4959 106.981 89.0918 106.981C84.7255 106.981 81.0429 105.442 78.0436 102.363C75.0431 99.284 73.5432 95.9521 73.5432 92.3663ZM130.597 220.504C125.842 220.504 121.691 218.964 118.145 215.885C114.598 212.808 112.826 208.502 112.826 202.967C112.826 198.056 114.539 193.926 117.97 190.574C121.399 187.223 125.607 185.547 130.596 185.547C135.507 185.547 139.637 187.223 142.989 190.574C146.339 193.926 148.016 198.056 148.016 202.967C148.016 208.423 146.263 212.71 142.755 215.827C139.248 218.944 135.195 220.504 130.597 220.504Z" fill="white"/>
</svg>
