<svg width="100" height="100" viewBox="0 0 100 100" fill="none" xmlns="http://www.w3.org/2000/svg">
<path d="M85 30.5835V0H15V30.5835L0 37.2502V100H100V37.2518L85 30.5835ZM85 34.2318L95.1416 38.7313L85 46.7798V34.2318ZM18.3333 3.33333H81.6667V49.423L78.3333 52.0671V13.3333H76.6667C73.9054 13.3333 71.6667 11.0946 71.6667 8.33333V6.66667H28.3333V8.33333C28.3333 11.0946 26.0946 13.3333 23.3333 13.3333H21.6667V52.0687L18.3333 49.4246V3.33333ZM75 54.7103L53.1063 72.0719C51.2891 73.5221 48.7093 73.5221 46.8913 72.0719L25 54.7119V16.4998C28.2707 15.8268 30.8268 13.2707 31.4998 10H68.5002C69.1732 13.2707 71.7293 15.8268 75 16.4998V54.7103ZM15 34.2318V46.7814L4.8584 38.7386L15 34.2318ZM3.33333 41.7814L36.3981 67.9997L3.33333 94.8853V41.7814ZM6.4502 96.6667L39.0714 70.1237L44.8201 74.6834C47.8483 77.1037 52.1493 77.1037 55.1782 74.6834L60.9285 70.1237L93.5498 96.6667H6.4502ZM96.6667 83.3333V94.8853L63.6019 67.9997L96.6667 41.7814V83.3333Z" fill="#0091E0"/>
<path d="M48.3333 15H51.6667V31.6667H48.3333V15Z" fill="#0091E0"/>
<path d="M60 15H55V31.6667H58.3333V26.6667H60C62.7612 26.6667 65 24.4279 65 21.6667V20C65 17.2388 62.7612 15 60 15ZM61.6667 21.6667C61.6667 22.5871 60.9204 23.3333 60 23.3333H58.3333V18.3333H60C60.9204 18.3333 61.6667 19.0796 61.6667 20V21.6667Z" fill="#0091E0"/>
<path d="M44.9618 15.3613L41.7049 14.6387L39.1667 26.0685L36.6284 14.6387L33.3716 15.3613L36.9971 31.6667H41.3363L44.9618 15.3613Z" fill="#0091E0"/>
<path d="M60.258 46.6666H53.6336L51.5853 40.367C51.3599 39.6826 50.7219 39.2203 50.0016 39.2203C49.2814 39.2203 48.6434 39.6826 48.418 40.367L46.3664 46.6666H39.742C39.0194 46.6666 38.3797 47.1313 38.1559 47.8182C37.933 48.505 38.1779 49.257 38.7614 49.6818L44.1219 53.5766L42.0736 59.8803C41.8514 60.5664 42.0964 61.3183 42.6799 61.7415C43.2642 62.1655 44.0544 62.1655 44.6387 61.7415L50 57.8466L55.3613 61.7415C55.9457 62.1655 56.7359 62.1655 57.3202 61.7415C57.9037 61.3183 58.1486 60.5664 57.9264 59.8803L55.8781 53.5766L61.2386 49.6818C61.8221 49.257 62.0671 48.505 61.8441 47.8182C61.6203 47.1313 60.9806 46.6666 60.258 46.6666ZM52.3332 53.4529L53.1665 56.0302L50.9766 54.4384C50.3923 54.0136 49.6012 54.0136 49.0169 54.4384L46.827 56.0302L47.6603 53.4529C47.8817 52.7669 47.6375 52.0157 47.0532 51.5918L44.8698 50H47.5781C48.3 50 48.9404 49.5353 49.1634 48.8484L49.9968 46.2736L50.8301 48.8484C51.0531 49.5353 51.6927 50 52.4154 50H55.1237L52.933 51.5918C52.3519 52.0174 52.1102 52.7685 52.3332 53.4529Z" fill="#0091E0"/>
</svg>
