<svg width="100" height="100" viewBox="0 0 100 100" fill="none" xmlns="http://www.w3.org/2000/svg">
<path d="M64.8567 0H10.8333V100H89.1667V24.31L64.8567 0ZM65.8333 5.69L83.4767 23.3333H65.8333V5.69ZM14.1667 96.6667V3.33333H62.5V26.6667H85.8333V96.6667H14.1667Z" fill="#0091E0"/>
<path d="M57.5 61.6667C58.42 61.6667 59.1667 60.9217 59.1667 60C59.1667 59.0784 58.42 58.3334 57.5 58.3334H29.1667C28.2467 58.3334 27.5 59.0784 27.5 60C27.5 60.9217 28.2467 61.6667 29.1667 61.6667H57.5Z" fill="#0091E0"/>
<path d="M74.1667 50H62.5C61.58 50 60.8333 50.745 60.8333 51.6667C60.8333 52.5883 61.58 53.3333 62.5 53.3333H74.1667C75.0867 53.3333 75.8333 52.5883 75.8333 51.6667C75.8333 50.745 75.0867 50 74.1667 50Z" fill="#0091E0"/>
<path d="M35.8333 51.6667C35.8333 52.5883 36.58 53.3333 37.5 53.3333H54.1667C55.0867 53.3333 55.8333 52.5883 55.8333 51.6667C55.8333 50.745 55.0867 50 54.1667 50H37.5C36.58 50 35.8333 50.745 35.8333 51.6667Z" fill="#0091E0"/>
<path d="M27.9833 50.4834C27.6833 50.7984 27.5 51.2317 27.5 51.6667C27.5 52.1 27.6833 52.5334 27.9833 52.8334C28.2833 53.1484 28.7167 53.3334 29.1667 53.3334C29.6167 53.3334 30.0333 53.15 30.35 52.85C30.65 52.5334 30.8333 52.1 30.8333 51.6667C30.8333 51.2317 30.65 50.7984 30.35 50.4834C29.7333 49.8667 28.5833 49.8834 27.9833 50.4834Z" fill="#0091E0"/>
<path d="M64.65 58.8166C64.35 59.1316 64.1667 59.5483 64.1667 60C64.1667 60.45 64.3333 60.8666 64.65 61.1833C64.9667 61.4833 65.4 61.6666 65.8333 61.6666C66.2667 61.6666 66.7 61.4833 67.0167 61.1833C67.3333 60.8666 67.5 60.45 67.5 60C67.5 59.565 67.3167 59.1316 67.0167 58.8166C66.3833 58.2 65.2833 58.2 64.65 58.8166Z" fill="#0091E0"/>
<path d="M72.9833 58.8166C72.6833 59.1316 72.5 59.5483 72.5 60C72.5 60.45 72.6667 60.8666 72.9833 61.1833C73.3 61.4833 73.7333 61.6666 74.1667 61.6666C74.6 61.6666 75.0333 61.4833 75.35 61.1666C75.6667 60.85 75.8333 60.4333 75.8333 60C75.8333 59.565 75.65 59.1316 75.35 58.8166C74.7167 58.2 73.6167 58.2 72.9833 58.8166Z" fill="#0091E0"/>
<path d="M38.375 66.9434C34.725 68.8434 33.4967 72.4784 33.0483 76.2467C32.3583 75.6684 31.6683 75.0917 30.9783 74.5134C29.345 73.145 26.975 75.49 28.6217 76.8717C30.18 78.1767 31.74 79.4834 33.2983 80.79C34.395 81.7084 36.0917 81.1284 36.1433 79.6117C36.265 76.0017 36.435 71.7084 40.0567 69.8234C41.9617 68.8317 40.2767 65.9534 38.375 66.9434Z" fill="#0091E0"/>
<path d="M60.7583 73.5133C58.3283 73.36 54.7717 77.105 52.8983 73.7683C52.465 72.995 51.3767 72.705 50.6183 73.17C48.2583 74.6183 45.1733 76.7017 42.6917 74.0033C41.2367 72.4217 38.8833 74.7833 40.335 76.36C43.4517 79.7483 47.4617 78.7183 51 76.7983C51.7967 77.69 52.785 78.3417 54.0617 78.6C55.3817 78.8667 60.77 76.6983 61.0617 77.0983C62.315 78.8133 65.2083 77.1517 63.94 75.4167C63.0783 74.2383 62.285 73.61 60.7583 73.5133Z" fill="#0091E0"/>
<path d="M47.7767 39.9384L48.9 39.14L48.3267 37.8867C47.8067 36.75 46.9717 35.8667 45.91 35.3334L42.3767 33.53C44.0017 32.4917 45.17 30.9284 45.8683 28.8617C47.0083 28.1667 47.7267 26.9317 47.7267 25.555V24.4434C47.7267 23.315 47.2367 22.2634 46.4033 21.535C45.8083 18.3717 43.6633 14.95 37.17 14.95C36.915 14.95 36.665 14.96 36.4183 14.98C35.5467 15.0517 34.2767 14.98 33.19 14.25C32.685 13.91 32.4267 13.6467 32.3 13.485C31.7717 12.8134 30.885 12.5784 30.0933 12.9017C29.3033 13.2267 28.84 14.0167 28.9367 14.8667C28.9867 15.295 29.0583 15.795 29.1667 16.34C29.3067 17.04 29.315 17.2417 29.31 17.295C29.2967 17.3534 29.2 17.56 29.1233 17.7267C29.0067 17.9767 28.8633 18.285 28.695 18.6967C28.3333 19.5784 28.07 20.5384 27.91 21.5617C27.095 22.2917 26.6133 23.3334 26.6133 24.445V25.5567C26.6133 26.9334 27.3317 28.1684 28.4717 28.8634C29.1667 30.9217 30.33 32.4817 31.9433 33.5184L28.27 35.33C27.2483 35.8867 26.4517 36.775 25.9667 37.8984L25.4333 39.1334L26.5267 39.915C29.6617 42.1517 33.34 43.3334 37.17 43.3334C40.9867 43.3334 44.6533 42.16 47.7767 39.9384ZM30.0267 38.1784L34.1017 36.1717C34.9667 35.7434 35.505 34.8784 35.505 33.9134V31.5434L34.4983 31.1084C32.9783 30.455 31.9883 29.19 31.4667 27.24L31.2283 26.3517L30.35 26.0784C30.1567 26.0184 29.95 25.83 29.95 25.5567V24.445C29.95 24.2084 30.1083 24.0417 30.2567 23.9634L31.0383 23.5467L31.13 22.665C31.2333 21.6734 31.4517 20.765 31.7817 19.9617C31.925 19.61 32.0483 19.3484 32.1483 19.1334C32.4067 18.58 32.5633 18.17 32.62 17.7084C33.8367 18.2167 35.2183 18.4167 36.6867 18.305C36.845 18.2917 37.0067 18.285 37.1717 18.285C42.0367 18.285 42.9533 20.5084 43.2083 22.6817L43.31 23.5534L44.0867 23.9617C44.235 24.04 44.395 24.2067 44.395 24.445V25.5567C44.395 25.83 44.1867 26.0184 43.995 26.0784L43.1167 26.3517L42.8783 27.24C42.3567 29.19 41.365 30.4567 39.8467 31.1084L38.84 31.5434V33.9234C38.84 34.8734 39.365 35.7334 40.215 36.1684L44.24 38.2234C39.8717 40.5717 34.38 40.5567 30.0267 38.1784Z" fill="#0091E0"/>
</svg>
