<svg width="100" height="100" viewBox="0 0 100 100" fill="none" xmlns="http://www.w3.org/2000/svg">
<path d="M96.875 17.1874C96.8784 14.2635 95.9693 11.4114 94.2744 9.02879C92.5795 6.64619 90.1834 4.85187 87.4201 3.89603C84.6568 2.94019 81.6641 2.87047 78.8593 3.69661C76.0545 4.52274 73.5774 6.20354 71.7734 8.50463C62.7084 3.75127 52.3365 2.09633 42.2424 3.79266C32.1483 5.48899 22.8871 10.4433 15.8738 17.8986C8.86054 25.354 4.48083 34.9003 3.40387 45.0792C2.32691 55.258 4.61194 65.5095 9.90981 74.2674C15.2077 83.0253 23.2271 89.808 32.7427 93.5791C42.2583 97.3502 52.7469 97.9024 62.6059 95.1513C72.4649 92.4001 81.1521 86.497 87.3403 78.3438C93.5284 70.1905 96.8772 60.2356 96.875 49.9999C96.8891 43.2002 95.4044 36.481 92.5266 30.3203C94.9125 25.9015 96.875 21.0937 96.875 17.1874ZM82.8125 6.24995C85.7122 6.25367 88.492 7.4072 90.5424 9.45758C92.5927 11.5079 93.7463 14.2878 93.75 17.1874C93.75 24.2296 85.8953 35.4687 82.8125 39.6156C79.7281 35.4687 71.875 24.2374 71.875 17.1874C71.8787 14.2878 73.0322 11.5079 75.0826 9.45758C77.133 7.4072 79.9128 6.25367 82.8125 6.24995ZM6.24998 49.9999C6.25355 48.0416 6.38823 46.0856 6.65311 44.1453L16.7875 46.8234C17.0818 46.902 17.3928 46.8916 17.6812 46.7937L26.8156 43.7499H34.375V51.5624C34.375 51.9768 34.5396 52.3743 34.8326 52.6673C35.1257 52.9603 35.5231 53.1249 35.9375 53.1249H41.0609L43.6656 60.9374L40.7062 69.8187C40.628 70.0535 40.6067 70.3035 40.644 70.5481C40.6814 70.7927 40.7762 71.0249 40.9209 71.2257C41.0655 71.4265 41.2558 71.5901 41.476 71.7029C41.6962 71.8158 41.94 71.8748 42.1875 71.8749H49.3937L46.9562 79.1937C46.8468 79.5138 46.8468 79.8611 46.9562 80.1812L49.3937 87.4999H45.3125C44.8981 87.4999 44.5007 87.6646 44.2076 87.9576C43.9146 88.2506 43.75 88.648 43.75 89.0624V93.2968C33.3436 91.782 23.8292 86.5745 16.9444 78.6255C10.0596 70.6764 6.2637 60.516 6.24998 49.9999ZM50 93.7499C48.9484 93.7499 47.9078 93.7 46.875 93.6265V90.6249H51.5625C51.8099 90.6248 52.0538 90.5658 52.274 90.4529C52.4942 90.3401 52.6845 90.1765 52.8291 89.9757C52.9737 89.7749 53.0686 89.5427 53.1059 89.2981C53.1432 89.0535 53.1219 88.8035 53.0437 88.5687L50.0844 79.6874L53.0437 70.8062C53.1219 70.5714 53.1432 70.3214 53.1059 70.0768C53.0686 69.8322 52.9737 69.5999 52.8291 69.3992C52.6845 69.1984 52.4942 69.0348 52.274 68.922C52.0538 68.8091 51.8099 68.7501 51.5625 68.7499H44.3562L46.7937 61.4312C46.9031 61.1111 46.9031 60.7638 46.7937 60.4437L43.6687 51.0687C43.5652 50.7577 43.3664 50.4871 43.1005 50.2953C42.8347 50.1035 42.5153 50.0002 42.1875 49.9999H37.5V42.1874C37.5 41.773 37.3354 41.3756 37.0423 41.0826C36.7493 40.7896 36.3519 40.6249 35.9375 40.6249H26.5625C26.3946 40.6253 26.2279 40.6528 26.0687 40.7062L17.1359 43.6828L7.17342 41.0499C9.20475 31.4074 14.4269 22.731 21.9965 16.4218C29.5662 10.1126 39.0414 6.53902 48.8922 6.27807L51.4781 14.0624L48.5187 22.9437C48.4093 23.2638 48.4093 23.6111 48.5187 23.9312L51.4781 32.8124L48.5187 41.6937C48.4653 41.8528 48.4379 42.0196 48.4375 42.1874V51.5624C48.4377 51.8099 48.4966 52.0538 48.6095 52.274C48.7224 52.4942 48.8859 52.6844 49.0867 52.8291C49.2875 52.9737 49.5197 53.0686 49.7644 53.1059C50.009 53.1432 50.259 53.1219 50.4937 53.0437L59.375 50.0843L67.1875 52.689V60.9374C67.1875 61.3518 67.3521 61.7493 67.6451 62.0423C67.9382 62.3353 68.3356 62.4999 68.75 62.4999H76.5625V68.7499C76.5625 69.1643 76.7271 69.5618 77.0201 69.8548C77.3132 70.1478 77.7106 70.3124 78.125 70.3124H88.7312C85.0235 77.3772 79.4559 83.2946 72.6298 87.4253C65.8037 91.556 57.9786 93.743 50 93.7499ZM93.75 49.9999C93.7554 55.9088 92.5571 61.7569 90.2281 67.1874H79.6875V60.9374C79.6875 60.523 79.5229 60.1256 79.2298 59.8326C78.9368 59.5396 78.5394 59.3749 78.125 59.3749H70.3125V51.5624C70.3122 51.2346 70.2089 50.9152 70.0171 50.6494C69.8253 50.3836 69.5547 50.1848 69.2437 50.0812L59.8687 46.9562C59.5484 46.8484 59.2016 46.8484 58.8812 46.9562L51.5625 49.3937V42.4406L54.6062 33.3062C54.7156 32.9861 54.7156 32.6388 54.6062 32.3187L51.6469 23.4374L54.6062 14.5562C54.7156 14.2361 54.7156 13.8888 54.6062 13.5687L52.1875 6.32026C58.4432 6.63072 64.559 8.28264 70.1203 11.164C69.219 13.0442 68.7508 15.1024 68.75 17.1874C68.75 26.9968 81.0687 42.4999 81.5922 43.164C81.7386 43.3471 81.9242 43.4948 82.1355 43.5964C82.3467 43.6979 82.5781 43.7507 82.8125 43.7507C83.0469 43.7507 83.2783 43.6979 83.4895 43.5964C83.7007 43.4948 83.8864 43.3471 84.0328 43.164C86.4021 40.1393 88.5933 36.9793 90.5953 33.6999C92.6912 38.8781 93.7625 44.4137 93.75 49.9999Z" fill="#0091E0"/>
<path d="M82.8125 25C84.3577 25 85.8681 24.5418 87.1529 23.6834C88.4377 22.8249 89.439 21.6048 90.0303 20.1772C90.6216 18.7497 90.7763 17.1788 90.4749 15.6634C90.1735 14.1479 89.4294 12.7558 88.3368 11.6632C87.2442 10.5706 85.8521 9.82657 84.3367 9.52512C82.8212 9.22367 81.2503 9.37839 79.8228 9.96969C78.3952 10.561 77.1751 11.5624 76.3166 12.8471C75.4582 14.1319 75 15.6423 75 17.1875C75.0025 19.2587 75.8264 21.2444 77.291 22.709C78.7556 24.1736 80.7413 24.9975 82.8125 25ZM82.8125 12.5C83.7396 12.5 84.6459 12.7749 85.4167 13.29C86.1876 13.8051 86.7884 14.5371 87.1432 15.3937C87.498 16.2502 87.5908 17.1927 87.4099 18.102C87.2291 19.0113 86.7826 19.8465 86.1271 20.5021C85.4715 21.1576 84.6363 21.6041 83.727 21.7849C82.8177 21.9658 81.8752 21.873 81.0187 21.5182C80.1621 21.1634 79.4301 20.5626 78.915 19.7917C78.3999 19.0209 78.125 18.1146 78.125 17.1875C78.125 15.9443 78.6189 14.752 79.4979 13.8729C80.377 12.9939 81.5693 12.5 82.8125 12.5Z" fill="#0091E0"/>
<path d="M23.4375 50C20.5378 50.0037 17.758 51.1573 15.7076 53.2076C13.6573 55.258 12.5037 58.0378 12.5 60.9375C12.5 67.6406 21.325 76.6609 22.3328 77.6672C22.6258 77.9601 23.0232 78.1247 23.4375 78.1247C23.8518 78.1247 24.2492 77.9601 24.5422 77.6672C25.55 76.6609 34.375 67.6406 34.375 60.9375C34.3713 58.0378 33.2177 55.258 31.1674 53.2076C29.117 51.1573 26.3372 50.0037 23.4375 50ZM23.4375 74.2984C20.5422 71.1422 15.625 64.9469 15.625 60.9375C15.625 58.8655 16.4481 56.8784 17.9132 55.4132C19.3784 53.9481 21.3655 53.125 23.4375 53.125C25.5095 53.125 27.4966 53.9481 28.9618 55.4132C30.4269 56.8784 31.25 58.8655 31.25 60.9375C31.25 64.9469 26.3328 71.1422 23.4375 74.2984Z" fill="#0091E0"/>
<path d="M23.4375 56.25C22.5104 56.25 21.6041 56.5249 20.8333 57.04C20.0624 57.5551 19.4616 58.2871 19.1068 59.1437C18.752 60.0002 18.6592 60.9427 18.8401 61.852C19.0209 62.7613 19.4674 63.5965 20.1229 64.2521C20.7785 64.9076 21.6137 65.3541 22.523 65.5349C23.4323 65.7158 24.3748 65.623 25.2313 65.2682C26.0879 64.9134 26.8199 64.3126 27.335 63.5417C27.8501 62.7709 28.125 61.8646 28.125 60.9375C28.125 59.6943 27.6311 58.502 26.7521 57.6229C25.873 56.7439 24.6807 56.25 23.4375 56.25ZM23.4375 62.5C23.1285 62.5 22.8264 62.4084 22.5694 62.2367C22.3125 62.065 22.1122 61.821 21.9939 61.5354C21.8757 61.2499 21.8447 60.9358 21.905 60.6327C21.9653 60.3296 22.1141 60.0512 22.3326 59.8326C22.5512 59.6141 22.8296 59.4653 23.1327 59.405C23.4358 59.3447 23.7499 59.3757 24.0354 59.4939C24.321 59.6122 24.565 59.8125 24.7367 60.0694C24.9084 60.3264 25 60.6285 25 60.9375C25 61.3519 24.8354 61.7493 24.5424 62.0424C24.2493 62.3354 23.8519 62.5 23.4375 62.5Z" fill="#0091E0"/>
</svg>
