<svg width="30" height="30" viewBox="0 0 30 30" fill="none" xmlns="http://www.w3.org/2000/svg">
<path d="M25.6115 4.3882C19.7605 -1.46277 10.2397 -1.46335 4.3882 4.3882C-1.46335 10.2397 -1.46277 19.7599 4.3882 25.6115C10.2392 31.463 19.7599 31.463 25.6115 25.6115C31.4624 19.7599 31.4624 10.2392 25.6115 4.3882ZM20.9178 20.9177C20.467 21.3685 19.7362 21.3685 19.2855 20.9177L14.9998 16.6321L10.5104 21.1215C10.0597 21.5723 9.32894 21.5723 8.87816 21.1215C8.42737 20.6707 8.42737 19.94 8.87816 19.4892L13.3675 14.9998L9.0819 10.7142C8.63112 10.2634 8.63112 9.53211 9.0819 9.0819C9.53269 8.63112 10.2634 8.63112 10.7142 9.0819L14.9998 13.3675L19.0811 9.28623C19.5319 8.83544 20.2626 8.83544 20.7134 9.28623C21.1642 9.73701 21.1642 10.4677 20.7134 10.9185L16.6321 14.9998L20.9178 19.2855C21.3685 19.7362 21.3685 20.467 20.9178 20.9177Z" fill="#0091E0"/>
</svg>
