<svg width="15" height="15" viewBox="0 0 15 15" fill="none" xmlns="http://www.w3.org/2000/svg">
<path d="M14.6633 11.8545L12.3468 9.53776C11.8854 9.07821 11.1213 9.09217 10.6438 9.56982L9.47678 10.7366C9.40304 10.696 9.32672 10.6535 9.24648 10.6085C8.50949 10.2002 7.50079 9.64045 6.43934 8.57823C5.37475 7.51377 4.81453 6.50352 4.40492 5.76605C4.3617 5.68792 4.32029 5.61259 4.27939 5.54106L5.06267 4.75895L5.44775 4.37338C5.92597 3.89504 5.93915 3.13116 5.47882 2.67027L3.16231 0.35324C2.70198 -0.107003 1.93754 -0.0930406 1.45933 0.385302L0.806453 1.04192L0.824294 1.05964C0.605377 1.33897 0.422443 1.66114 0.286309 2.00856C0.16082 2.33927 0.0826907 2.65484 0.0469659 2.97107C-0.258915 5.50688 0.899881 7.82443 4.0447 10.9693C8.3918 15.3161 11.895 14.9877 12.0461 14.9717C12.3753 14.9323 12.6907 14.8537 13.0113 14.7292C13.3557 14.5947 13.6777 14.412 13.9568 14.1935L13.9711 14.2062L14.6325 13.5586C15.1097 13.0803 15.1235 12.3162 14.6633 11.8545Z" fill="white"/>
</svg>
