<svg width="40" height="40" viewBox="0 0 40 40" fill="none" xmlns="http://www.w3.org/2000/svg">
<path d="M19.9352 6.73377C21.7948 6.73377 23.3022 5.22638 23.3022 3.36688C23.3022 1.50741 21.7948 0 19.9352 0C18.0758 0 16.5684 1.50741 16.5684 3.36688C16.5684 5.22638 18.0758 6.73377 19.9352 6.73377Z" fill="#0091E0"/>
<path d="M21.1082 8.33942C20.2692 8.1691 19.3571 8.17658 18.5331 8.37079C12.9356 9.0267 11.118 15.5057 11.6313 20.4459C11.8539 22.5817 15.2208 22.604 14.9959 20.4459C14.8091 18.6455 14.8891 15.9286 15.846 13.9975C15.846 16.3447 15.846 18.6918 15.846 21.0383C15.846 21.1213 15.8542 21.199 15.858 21.2788C15.8557 21.3169 15.8468 21.3491 15.8468 21.3878C15.8468 26.975 15.8371 32.5598 15.6062 38.1423C15.5039 40.624 19.3519 40.6143 19.4535 38.1423C19.6342 33.767 19.6798 29.3893 19.6903 25.011C19.8725 25.023 20.0548 25.023 20.2372 25.0125C20.2484 29.391 20.2924 33.7685 20.4716 38.1423C20.574 40.6143 24.422 40.624 24.319 38.1423C24.088 32.5598 24.0798 26.975 24.0798 21.3878C24.0798 21.2146 24.0566 21.0569 24.0216 20.9053C24.0164 18.4797 23.9238 16.0518 23.9522 13.6277C25.098 15.5677 25.2026 18.5267 25.004 20.4444C24.7784 22.6011 28.146 22.5794 28.3686 20.4444C28.8938 15.4019 26.9888 8.75477 21.1082 8.33942Z" fill="#0091E0"/>
</svg>
