<svg width="40" height="40" viewBox="0 0 40 40" fill="none" xmlns="http://www.w3.org/2000/svg">
<path d="M35.3124 3.125H33.4376V0H30.3124V3.125H9.6875V0H6.5625V3.125H4.6875C2.10282 3.125 0 5.22782 0 7.8125V35.3124C0 37.8972 2.10282 40 4.6875 40H35.3124C37.8972 40 40 37.8972 40 35.3124V7.8125C40 5.22782 37.8972 3.125 35.3124 3.125ZM36.875 35.3124C36.875 36.174 36.174 36.875 35.3124 36.875H4.6875C3.82594 36.875 3.125 36.174 3.125 35.3124V14.6875H36.875V35.3124ZM36.875 11.5625H3.125V7.8125C3.125 6.95094 3.82594 6.25 4.6875 6.25H6.5625V9.375H9.6875V6.25H30.3124V9.375H33.4376V6.25H35.3124C36.174 6.25 36.875 6.95094 36.875 7.8125V11.5625Z" fill="#0091E0"/>
<path d="M9.0625 17.9688H5.9375V21.0938H9.0625V17.9688Z" fill="#0091E0"/>
<path d="M15.3125 17.9688H12.1875V21.0938H15.3125V17.9688Z" fill="#0091E0"/>
<path d="M21.5624 17.9688H18.4375V21.0938H21.5624V17.9688Z" fill="#0091E0"/>
<path d="M27.8123 17.9688H24.6875V21.0938H27.8123V17.9688Z" fill="#0091E0"/>
<path d="M34.0623 17.9688H30.9375V21.0938H34.0623V17.9688Z" fill="#0091E0"/>
<path d="M9.0625 24.2188H5.9375V27.3438H9.0625V24.2188Z" fill="#0091E0"/>
<path d="M15.3125 24.2188H12.1875V27.3438H15.3125V24.2188Z" fill="#0091E0"/>
<path d="M21.5624 24.2188H18.4375V27.3438H21.5624V24.2188Z" fill="#0091E0"/>
<path d="M27.8123 24.2188H24.6875V27.3438H27.8123V24.2188Z" fill="#0091E0"/>
<path d="M9.0625 30.4688H5.9375V33.5937H9.0625V30.4688Z" fill="#0091E0"/>
<path d="M15.3125 30.4688H12.1875V33.5937H15.3125V30.4688Z" fill="#0091E0"/>
<path d="M21.5624 30.4688H18.4375V33.5937H21.5624V30.4688Z" fill="#0091E0"/>
<path d="M27.8123 30.4688H24.6875V33.5937H27.8123V30.4688Z" fill="#0091E0"/>
<path d="M34.0623 24.2188H30.9375V27.3438H34.0623V24.2188Z" fill="#0091E0"/>
</svg>
