<svg width="40" height="40" viewBox="0 0 40 40" fill="none" xmlns="http://www.w3.org/2000/svg">
<path d="M29.8119 8.44429C31.3489 8.44429 32.5859 7.21 32.5859 5.67581V2.77404C32.5859 1.23707 31.3489 0 29.8119 0C28.2819 0 27.0406 1.23707 27.0406 2.77404V5.67581C27.0406 7.21 28.2819 8.44429 29.8119 8.44429Z" fill="#0091E0"/>
<path d="M39.671 4.80389H34.0826V6.20895C34.0826 8.54287 32.193 10.4367 29.8577 10.4367C27.5224 10.4367 25.6356 8.54287 25.6356 6.20895V4.80389H14.3687V6.20895C14.3687 8.54287 12.479 10.4367 10.1437 10.4367C7.81121 10.4367 5.92436 8.54287 5.92436 6.20895V4.80389L0.288818 4.73169V39.9986L3.1059 40H36.8969L39.7112 39.9903L39.671 4.80389ZM36.8969 37.194H3.1059V14.6602H36.8969V37.194Z" fill="#0091E0"/>
<path d="M10.102 8.44429C11.6348 8.44429 12.8705 7.21 12.8705 5.67581V2.77404C12.8705 1.23707 11.6348 0 10.102 0C8.56924 0 7.328 1.23707 7.328 2.77404V5.67581C7.328 7.21 8.57063 8.44429 10.102 8.44429Z" fill="#0091E0"/>
<path d="M13.8202 31.0989C14.8698 30.1978 15.6418 28.7317 15.6418 26.6157C15.6418 24.6622 14.9157 23.3002 13.7702 22.4505C12.7178 21.6647 11.3433 21.2676 9.2232 21.2676C7.98057 21.2676 6.77405 21.3675 5.86047 21.5147V32.361C6.4686 32.4429 7.40022 32.5248 8.69977 32.5248C10.8671 32.5248 12.6539 32.0638 13.8202 31.0989ZM8.35683 23.2863C8.57064 23.2349 8.94551 23.1877 9.48699 23.1877C11.6543 23.1877 13.0038 24.4026 13.0038 26.699C13.0038 29.337 11.5043 30.588 9.2232 30.5699C8.92746 30.5699 8.56926 30.5699 8.35544 30.5241L8.35683 23.2863Z" fill="#0091E0"/>
<path d="M19.596 29.5704H22.7601L23.6168 32.4124H26.3256L22.8796 21.3496H19.596L16.2305 32.4124H18.8115L19.596 29.5704ZM20.6109 25.3538C20.7956 24.7151 20.9608 23.8779 21.1232 23.2198H21.1551C21.3204 23.8779 21.5161 24.6998 21.7161 25.3538L22.4019 27.703H19.9556L20.6109 25.3538Z" fill="#0091E0"/>
<path d="M28.7914 32.4137H31.2836V27.7972L34.9254 21.3508H32.1208L31.0032 24.0082C30.6755 24.7941 30.4145 25.4355 30.1673 26.1256H30.1326C29.8716 25.4036 29.6286 24.8135 29.2843 24.0082L28.1666 21.3508H25.2954L28.7914 27.8805V32.4137Z" fill="#0091E0"/>
</svg>
