<svg width="100" height="100" viewBox="0 0 100 100" fill="none" xmlns="http://www.w3.org/2000/svg">
<path d="M98.3333 15.8333H80V2.49998C80 1.57956 79.2537 0.833313 78.3333 0.833313H21.6667C20.7463 0.833313 20 1.57956 20 2.49998V25.8333H1.66667C0.74625 25.8333 0 26.5796 0 27.5V95.8333C0 96.7537 0.74625 97.5 1.66667 97.5C2.58708 97.5 3.33333 96.7537 3.33333 95.8333V29.1666H20V97.5C20 98.4204 20.7463 99.1666 21.6667 99.1666H78.3333C79.2537 99.1666 80 98.4204 80 97.5V19.1666H96.6667V95.8333C96.6667 96.7537 97.4129 97.5 98.3333 97.5C99.2537 97.5 100 96.7537 100 95.8333V17.5C100 16.5796 99.2537 15.8333 98.3333 15.8333ZM48.3333 95.8333H41.6667V80.8333H48.3333V95.8333ZM58.3333 95.8333H51.6667V80.8333H58.3333V95.8333ZM76.6667 95.8333H61.6667V79.1666C61.6667 78.2462 60.9204 77.5 60 77.5H40C39.0796 77.5 38.3333 78.2462 38.3333 79.1666V95.8333H23.3333V4.16665H76.6667V95.8333Z" fill="#0091E0"/>
<path d="M38.3334 7.5H28.3334C27.413 7.5 26.6667 8.24625 26.6667 9.16667V19.1667C26.6667 20.0871 27.413 20.8333 28.3334 20.8333H38.3334C39.2538 20.8333 40.0001 20.0871 40.0001 19.1667V9.16667C40.0001 8.24625 39.2538 7.5 38.3334 7.5ZM36.6667 17.5H30.0001V10.8333H36.6667V17.5Z" fill="#0091E0"/>
<path d="M54.9999 7.5H44.9999C44.0795 7.5 43.3333 8.24625 43.3333 9.16667V19.1667C43.3333 20.0871 44.0795 20.8333 44.9999 20.8333H54.9999C55.9203 20.8333 56.6666 20.0871 56.6666 19.1667V9.16667C56.6666 8.24625 55.9203 7.5 54.9999 7.5ZM53.3333 17.5H46.6666V10.8333H53.3333V17.5Z" fill="#0091E0"/>
<path d="M71.6667 7.5H61.6667C60.7462 7.5 60 8.24625 60 9.16667V19.1667C60 20.0871 60.7462 20.8333 61.6667 20.8333H71.6667C72.5871 20.8333 73.3333 20.0871 73.3333 19.1667V9.16667C73.3333 8.24625 72.5871 7.5 71.6667 7.5ZM70 17.5H63.3333V10.8333H70V17.5Z" fill="#0091E0"/>
<path d="M38.3334 24.1667H28.3334C27.413 24.1667 26.6667 24.9129 26.6667 25.8334V35.8334C26.6667 36.7538 27.413 37.5 28.3334 37.5H38.3334C39.2538 37.5 40.0001 36.7538 40.0001 35.8334V25.8334C40.0001 24.9129 39.2538 24.1667 38.3334 24.1667ZM36.6667 34.1667H30.0001V27.5H36.6667V34.1667Z" fill="#0091E0"/>
<path d="M54.9999 24.1667H44.9999C44.0795 24.1667 43.3333 24.9129 43.3333 25.8334V35.8334C43.3333 36.7538 44.0795 37.5 44.9999 37.5H54.9999C55.9203 37.5 56.6666 36.7538 56.6666 35.8334V25.8334C56.6666 24.9129 55.9203 24.1667 54.9999 24.1667ZM53.3333 34.1667H46.6666V27.5H53.3333V34.1667Z" fill="#0091E0"/>
<path d="M71.6667 24.1667H61.6667C60.7462 24.1667 60 24.9129 60 25.8334V35.8334C60 36.7538 60.7462 37.5 61.6667 37.5H71.6667C72.5871 37.5 73.3333 36.7538 73.3333 35.8334V25.8334C73.3333 24.9129 72.5871 24.1667 71.6667 24.1667ZM70 34.1667H63.3333V27.5H70V34.1667Z" fill="#0091E0"/>
<path d="M38.3334 40.8333H28.3334C27.413 40.8333 26.6667 41.5796 26.6667 42.5V52.5C26.6667 53.4204 27.413 54.1666 28.3334 54.1666H38.3334C39.2538 54.1666 40.0001 53.4204 40.0001 52.5V42.5C40.0001 41.5796 39.2538 40.8333 38.3334 40.8333ZM36.6667 50.8333H30.0001V44.1666H36.6667V50.8333Z" fill="#0091E0"/>
<path d="M54.9999 40.8333H44.9999C44.0795 40.8333 43.3333 41.5796 43.3333 42.5V52.5C43.3333 53.4204 44.0795 54.1666 44.9999 54.1666H54.9999C55.9203 54.1666 56.6666 53.4204 56.6666 52.5V42.5C56.6666 41.5796 55.9203 40.8333 54.9999 40.8333ZM53.3333 50.8333H46.6666V44.1666H53.3333V50.8333Z" fill="#0091E0"/>
<path d="M71.6667 40.8333H61.6667C60.7462 40.8333 60 41.5796 60 42.5V52.5C60 53.4204 60.7462 54.1666 61.6667 54.1666H71.6667C72.5871 54.1666 73.3333 53.4204 73.3333 52.5V42.5C73.3333 41.5796 72.5871 40.8333 71.6667 40.8333ZM70 50.8333H63.3333V44.1666H70V50.8333Z" fill="#0091E0"/>
<path d="M38.3334 57.5H28.3334C27.413 57.5 26.6667 58.2462 26.6667 59.1667V69.1667C26.6667 70.0871 27.413 70.8333 28.3334 70.8333H38.3334C39.2538 70.8333 40.0001 70.0871 40.0001 69.1667V59.1667C40.0001 58.2462 39.2538 57.5 38.3334 57.5ZM36.6667 67.5H30.0001V60.8333H36.6667V67.5Z" fill="#0091E0"/>
<path d="M54.9999 57.5H44.9999C44.0795 57.5 43.3333 58.2462 43.3333 59.1667V69.1667C43.3333 70.0871 44.0795 70.8333 44.9999 70.8333H54.9999C55.9203 70.8333 56.6666 70.0871 56.6666 69.1667V59.1667C56.6666 58.2462 55.9203 57.5 54.9999 57.5ZM53.3333 67.5H46.6666V60.8333H53.3333V67.5Z" fill="#0091E0"/>
<path d="M71.6667 57.5H61.6667C60.7462 57.5 60 58.2462 60 59.1667V69.1667C60 70.0871 60.7462 70.8333 61.6667 70.8333H71.6667C72.5871 70.8333 73.3333 70.0871 73.3333 69.1667V59.1667C73.3333 58.2462 72.5871 57.5 71.6667 57.5ZM70 67.5H63.3333V60.8333H70V67.5Z" fill="#0091E0"/>
<path d="M10.0001 32.5H8.33341C7.413 32.5 6.66675 33.2462 6.66675 34.1667V35.8333C6.66675 36.7537 7.413 37.5 8.33341 37.5H10.0001C10.9205 37.5 11.6667 36.7537 11.6667 35.8333V34.1667C11.6667 33.2462 10.9205 32.5 10.0001 32.5Z" fill="#0091E0"/>
<path d="M16.6666 32.5H14.9999C14.0795 32.5 13.3333 33.2462 13.3333 34.1667V35.8333C13.3333 36.7537 14.0795 37.5 14.9999 37.5H16.6666C17.587 37.5 18.3333 36.7537 18.3333 35.8333V34.1667C18.3333 33.2462 17.587 32.5 16.6666 32.5Z" fill="#0091E0"/>
<path d="M10.0001 39.1667H8.33341C7.413 39.1667 6.66675 39.9129 6.66675 40.8334V42.5C6.66675 43.4204 7.413 44.1667 8.33341 44.1667H10.0001C10.9205 44.1667 11.6667 43.4204 11.6667 42.5V40.8334C11.6667 39.9129 10.9205 39.1667 10.0001 39.1667Z" fill="#0091E0"/>
<path d="M16.6666 39.1667H14.9999C14.0795 39.1667 13.3333 39.9129 13.3333 40.8334V42.5C13.3333 43.4204 14.0795 44.1667 14.9999 44.1667H16.6666C17.587 44.1667 18.3333 43.4204 18.3333 42.5V40.8334C18.3333 39.9129 17.587 39.1667 16.6666 39.1667Z" fill="#0091E0"/>
<path d="M10.0001 45.8333H8.33341C7.413 45.8333 6.66675 46.5796 6.66675 47.5V49.1666C6.66675 50.0871 7.413 50.8333 8.33341 50.8333H10.0001C10.9205 50.8333 11.6667 50.0871 11.6667 49.1666V47.5C11.6667 46.5796 10.9205 45.8333 10.0001 45.8333Z" fill="#0091E0"/>
<path d="M16.6666 45.8333H14.9999C14.0795 45.8333 13.3333 46.5796 13.3333 47.5V49.1666C13.3333 50.0871 14.0795 50.8333 14.9999 50.8333H16.6666C17.587 50.8333 18.3333 50.0871 18.3333 49.1666V47.5C18.3333 46.5796 17.587 45.8333 16.6666 45.8333Z" fill="#0091E0"/>
<path d="M10.0001 52.5H8.33341C7.413 52.5 6.66675 53.2462 6.66675 54.1667V55.8333C6.66675 56.7537 7.413 57.5 8.33341 57.5H10.0001C10.9205 57.5 11.6667 56.7537 11.6667 55.8333V54.1667C11.6667 53.2462 10.9205 52.5 10.0001 52.5Z" fill="#0091E0"/>
<path d="M16.6666 52.5H14.9999C14.0795 52.5 13.3333 53.2462 13.3333 54.1667V55.8333C13.3333 56.7537 14.0795 57.5 14.9999 57.5H16.6666C17.587 57.5 18.3333 56.7537 18.3333 55.8333V54.1667C18.3333 53.2462 17.587 52.5 16.6666 52.5Z" fill="#0091E0"/>
<path d="M10.0001 59.1667H8.33341C7.413 59.1667 6.66675 59.9129 6.66675 60.8334V62.5C6.66675 63.4204 7.413 64.1667 8.33341 64.1667H10.0001C10.9205 64.1667 11.6667 63.4204 11.6667 62.5V60.8334C11.6667 59.9129 10.9205 59.1667 10.0001 59.1667Z" fill="#0091E0"/>
<path d="M16.6666 59.1667H14.9999C14.0795 59.1667 13.3333 59.9129 13.3333 60.8334V62.5C13.3333 63.4204 14.0795 64.1667 14.9999 64.1667H16.6666C17.587 64.1667 18.3333 63.4204 18.3333 62.5V60.8334C18.3333 59.9129 17.587 59.1667 16.6666 59.1667Z" fill="#0091E0"/>
<path d="M10.0001 65.8333H8.33341C7.413 65.8333 6.66675 66.5796 6.66675 67.5V69.1666C6.66675 70.0871 7.413 70.8333 8.33341 70.8333H10.0001C10.9205 70.8333 11.6667 70.0871 11.6667 69.1666V67.5C11.6667 66.5796 10.9205 65.8333 10.0001 65.8333Z" fill="#0091E0"/>
<path d="M16.6666 65.8333H14.9999C14.0795 65.8333 13.3333 66.5796 13.3333 67.5V69.1666C13.3333 70.0871 14.0795 70.8333 14.9999 70.8333H16.6666C17.587 70.8333 18.3333 70.0871 18.3333 69.1666V67.5C18.3333 66.5796 17.587 65.8333 16.6666 65.8333Z" fill="#0091E0"/>
<path d="M10.0001 72.5H8.33341C7.413 72.5 6.66675 73.2462 6.66675 74.1667V75.8333C6.66675 76.7537 7.413 77.5 8.33341 77.5H10.0001C10.9205 77.5 11.6667 76.7537 11.6667 75.8333V74.1667C11.6667 73.2462 10.9205 72.5 10.0001 72.5Z" fill="#0091E0"/>
<path d="M16.6666 72.5H14.9999C14.0795 72.5 13.3333 73.2462 13.3333 74.1667V75.8333C13.3333 76.7537 14.0795 77.5 14.9999 77.5H16.6666C17.587 77.5 18.3333 76.7537 18.3333 75.8333V74.1667C18.3333 73.2462 17.587 72.5 16.6666 72.5Z" fill="#0091E0"/>
<path d="M10.0001 79.1667H8.33341C7.413 79.1667 6.66675 79.9129 6.66675 80.8334V82.5C6.66675 83.4204 7.413 84.1667 8.33341 84.1667H10.0001C10.9205 84.1667 11.6667 83.4204 11.6667 82.5V80.8334C11.6667 79.9129 10.9205 79.1667 10.0001 79.1667Z" fill="#0091E0"/>
<path d="M16.6666 79.1667H14.9999C14.0795 79.1667 13.3333 79.9129 13.3333 80.8334V82.5C13.3333 83.4204 14.0795 84.1667 14.9999 84.1667H16.6666C17.587 84.1667 18.3333 83.4204 18.3333 82.5V80.8334C18.3333 79.9129 17.587 79.1667 16.6666 79.1667Z" fill="#0091E0"/>
<path d="M10.0001 85.8333H8.33341C7.413 85.8333 6.66675 86.5796 6.66675 87.5V89.1666C6.66675 90.0871 7.413 90.8333 8.33341 90.8333H10.0001C10.9205 90.8333 11.6667 90.0871 11.6667 89.1666V87.5C11.6667 86.5796 10.9205 85.8333 10.0001 85.8333Z" fill="#0091E0"/>
<path d="M16.6666 85.8333H14.9999C14.0795 85.8333 13.3333 86.5796 13.3333 87.5V89.1666C13.3333 90.0871 14.0795 90.8333 14.9999 90.8333H16.6666C17.587 90.8333 18.3333 90.0871 18.3333 89.1666V87.5C18.3333 86.5796 17.587 85.8333 16.6666 85.8333Z" fill="#0091E0"/>
<path d="M91.6666 22.5H84.9999C84.0795 22.5 83.3333 23.2462 83.3333 24.1667V30.8333C83.3333 31.7537 84.0795 32.5 84.9999 32.5H91.6666C92.587 32.5 93.3333 31.7537 93.3333 30.8333V24.1667C93.3333 23.2462 92.587 22.5 91.6666 22.5ZM89.9999 29.1667H86.6666V25.8333H89.9999V29.1667Z" fill="#0091E0"/>
<path d="M91.6666 35.8333H84.9999C84.0795 35.8333 83.3333 36.5796 83.3333 37.5V44.1666C83.3333 45.0871 84.0795 45.8333 84.9999 45.8333H91.6666C92.587 45.8333 93.3333 45.0871 93.3333 44.1666V37.5C93.3333 36.5796 92.587 35.8333 91.6666 35.8333ZM89.9999 42.5H86.6666V39.1666H89.9999V42.5Z" fill="#0091E0"/>
<path d="M91.6666 49.1667H84.9999C84.0795 49.1667 83.3333 49.9129 83.3333 50.8334V57.5C83.3333 58.4204 84.0795 59.1667 84.9999 59.1667H91.6666C92.587 59.1667 93.3333 58.4204 93.3333 57.5V50.8334C93.3333 49.9129 92.587 49.1667 91.6666 49.1667ZM89.9999 55.8334H86.6666V52.5H89.9999V55.8334Z" fill="#0091E0"/>
<path d="M91.6666 62.5H84.9999C84.0795 62.5 83.3333 63.2462 83.3333 64.1667V70.8333C83.3333 71.7537 84.0795 72.5 84.9999 72.5H91.6666C92.587 72.5 93.3333 71.7537 93.3333 70.8333V64.1667C93.3333 63.2462 92.587 62.5 91.6666 62.5ZM89.9999 69.1667H86.6666V65.8333H89.9999V69.1667Z" fill="#0091E0"/>
<path d="M91.6666 75.8333H84.9999C84.0795 75.8333 83.3333 76.5796 83.3333 77.5V84.1666C83.3333 85.0871 84.0795 85.8333 84.9999 85.8333H91.6666C92.587 85.8333 93.3333 85.0871 93.3333 84.1666V77.5C93.3333 76.5796 92.587 75.8333 91.6666 75.8333ZM89.9999 82.5H86.6666V79.1666H89.9999V82.5Z" fill="#0091E0"/>
</svg>
