<svg width="100" height="100" viewBox="0 0 100 100" fill="none" xmlns="http://www.w3.org/2000/svg">
<path d="M97.0886 17.7742C97.0825 17.7742 97.0764 17.7734 97.0703 17.7734H70.5078V14.8438C70.5078 9.99756 66.5649 6.05469 61.7188 6.05469H38.2812C33.4351 6.05469 29.4922 9.99756 29.4922 14.8438V17.7734H2.92969C1.29852 17.7734 0 19.1101 0 20.7031V85.1562C0 90.0024 3.94287 93.9453 8.78906 93.9453H91.2109C96.0571 93.9453 100 90.0024 100 85.1562V20.7649C100 20.7611 100 20.7573 100 20.7535C99.8878 18.8293 98.7045 17.7849 97.0886 17.7742ZM35.3516 14.8438C35.3516 13.2286 36.6661 11.9141 38.2812 11.9141H61.7188C63.3339 11.9141 64.6484 13.2286 64.6484 14.8438V17.7734H35.3516V14.8438ZM93.0054 23.6328L83.9073 50.9262C83.5083 52.1248 82.3914 52.9297 81.1287 52.9297H64.6484V50C64.6484 48.3818 63.3369 47.0703 61.7188 47.0703H38.2812C36.6631 47.0703 35.3516 48.3818 35.3516 50V52.9297H18.8713C17.6086 52.9297 16.4917 52.1248 16.0927 50.9262L6.99463 23.6328H93.0054ZM58.7891 52.9297V58.7891H41.2109V52.9297H58.7891ZM94.1406 85.1562C94.1406 86.7714 92.8261 88.0859 91.2109 88.0859H8.78906C7.17392 88.0859 5.85938 86.7714 5.85938 85.1562V38.7566L10.5339 52.7794C11.7317 56.3744 15.0826 58.7891 18.8713 58.7891H35.3516V61.7188C35.3516 63.3369 36.6631 64.6484 38.2812 64.6484H61.7188C63.3369 64.6484 64.6484 63.3369 64.6484 61.7188V58.7891H81.1287C84.9174 58.7891 88.2683 56.3744 89.4661 52.7794L94.1406 38.7566V85.1562Z" fill="#0091E0"/>
</svg>
