<svg width="100" height="74" viewBox="0 0 100 74" fill="none" xmlns="http://www.w3.org/2000/svg">
<path d="M11.9209 43.7478C11.06 44.1626 10.6802 45.2069 11.0639 46.0995L14.9961 54.7691C15.1893 55.2008 15.5418 55.5369 15.9752 55.7027C16.1651 55.7735 16.3665 55.8101 16.569 55.8101C16.8224 55.8123 17.0725 55.7567 17.3029 55.6493L47.0128 41.3972L44.3218 70.2944C44.2698 70.8632 44.4832 71.4225 44.8975 71.8024C46.2001 72.9097 47.8233 73.5404 49.5122 73.5972C49.978 73.5966 50.441 73.5365 50.8925 73.4184C53.3044 72.772 55.1744 70.5647 56.4501 66.7948L68.1418 31.2386L91.2974 20.1454C98.1132 16.8791 101.626 10.2561 99.2669 5.08663C97.9283 2.3847 95.3642 0.54669 92.4335 0.186395C89.1772 -0.318355 85.8491 0.207754 82.8916 1.69502L56.1699 14.5639L27.4397 3.02266C23.8216 1.62308 20.956 1.65905 18.9464 3.14913C17.2602 4.57008 16.3008 6.70599 16.3419 8.94589C16.3594 9.51415 16.638 10.0397 17.0933 10.3646L36.4392 24.0232L25.36 29.4079L6.78193 24.5611C6.02066 24.3689 5.22819 24.7213 4.84235 25.4228L0.211783 33.9838C-0.0284743 34.4374 -0.0662369 34.9759 0.108347 35.4604C0.281836 35.9455 0.650705 36.3294 1.12082 36.5149L14.8746 42.3488L11.9209 43.7478ZM19.9239 8.0488C20.0268 7.28999 20.4005 6.59919 20.973 6.11018C21.9696 5.37385 23.7871 5.48177 26.216 6.41483L51.8015 16.6638L40.1268 22.2639L19.9239 8.0488ZM4.19601 33.9664L7.23672 28.4204L25.1148 32.9788C25.5001 33.0789 25.9068 33.0412 26.2691 32.872L84.3775 4.99726C86.6876 3.827 89.2894 3.40094 91.8397 3.77642C93.6282 3.9456 95.2214 5.00569 96.1042 6.61212C97.5709 9.84353 94.6878 14.5639 89.8115 16.8971L69.6791 26.5902L70.9028 22.8737C71.212 21.9176 70.7069 20.8845 69.776 20.5675C68.8439 20.2505 67.8386 20.7693 67.5299 21.7254L53.1467 65.6814C52.2902 68.177 51.2241 69.6671 50.036 69.9892C49.2999 70.1347 48.5381 69.9864 47.9038 69.5772L51.3993 31.8839C51.4907 30.893 50.783 30.0133 49.8171 29.9194C48.8522 29.8244 47.9957 30.5523 47.9038 31.5433L47.3625 37.3046L17.3724 51.6636L14.9096 46.2788L19.8368 43.9102C20.4711 43.623 20.88 42.9789 20.88 42.2678C20.88 41.5562 20.4711 40.9121 19.8368 40.6254L4.19601 33.9664Z" fill="#0091E0"/>
</svg>
