<svg width="100" height="100" viewBox="0 0 100 100" fill="none" xmlns="http://www.w3.org/2000/svg">
<g clip-path="url(#clip0)">
<path d="M26.937 84.5938C26.161 85.9388 25.4367 87.1633 24.7814 88.1981C23.5171 90.1853 21.325 91.3885 18.9698 91.3885C16.6146 91.3885 14.4225 90.1851 13.1582 88.1981C12.503 87.1633 11.7786 85.939 11.0026 84.5938C3.794 85.9562 0 88.8362 0 91.0779C0 94.4751 8.1053 98.2863 18.9696 98.2863C29.8341 98.2863 37.9392 94.4751 37.9392 91.0779C37.9394 88.8362 34.1454 85.9562 26.937 84.5938Z" fill="#0091E0"/>
<path d="M18.9698 29.3057C8.47708 29.3324 -0.0115143 37.8519 1.17238e-05 48.3444C1.17238e-05 55.6392 9.74357 76.4196 16.0725 86.3356C16.6976 87.3335 17.7922 87.9395 18.9696 87.9395C20.147 87.9395 21.2418 87.3335 21.8668 86.3356C28.1957 76.4196 37.9392 55.6392 37.9392 48.3444C37.951 37.8519 29.4624 29.3324 18.9698 29.3057ZM18.9698 62.0715C11.3504 62.0715 5.17361 55.8947 5.17361 48.2753C5.17361 40.6558 11.3504 34.4791 18.9698 34.4791C26.5893 34.4791 32.766 40.6558 32.766 48.2753C32.7557 55.8906 26.585 62.0615 18.9698 62.0715Z" fill="#0091E0"/>
<path d="M18.9698 37.9282C13.2552 37.9282 8.62256 42.5607 8.62256 48.2754C8.62256 53.9902 13.255 58.6226 18.9698 58.6226C24.6843 58.6226 29.317 53.9902 29.317 48.2754C29.3123 42.5626 24.6824 37.9327 18.9698 37.9282Z" fill="#0091E0"/>
<path d="M84.5015 48.2755C91.0375 48.2755 96.5731 45.1197 96.5731 41.3775C96.5731 39.2563 94.6762 37.1869 91.6581 35.8591C90.6407 37.756 89.6577 39.446 88.8644 40.7051C87.9159 42.198 86.27 43.1021 84.5013 43.1021C82.7325 43.1021 81.0867 42.1978 80.1382 40.7051C79.3449 39.4462 78.362 37.7562 77.3444 35.8591C74.3266 37.1869 72.4297 39.2563 72.4297 41.3775C72.4299 45.1195 77.9655 48.2755 84.5015 48.2755Z" fill="#0091E0"/>
<path d="M84.5015 39.6226C85.0807 39.6226 85.6227 39.3372 85.9501 38.8595C90.1233 32.2891 96.5729 18.5965 96.5729 13.8368C96.5819 7.15781 91.1803 1.73298 84.5013 1.71344C77.8223 1.73298 72.4207 7.15761 72.4297 13.8368C72.4297 18.5965 78.8794 32.2891 83.0527 38.8595C83.3804 39.3372 83.9223 39.6226 84.5015 39.6226ZM75.8789 13.7851C75.8789 9.02287 79.7393 5.16244 84.5015 5.16244C89.2637 5.16244 93.1241 9.02287 93.1241 13.7851C93.1224 18.5465 89.2629 22.4059 84.5015 22.4077C79.7393 22.4077 75.8789 18.5472 75.8789 13.7851Z" fill="#0091E0"/>
<path d="M89.6751 13.7851C89.6667 10.9313 87.3554 8.61985 84.5015 8.61145C81.6442 8.61145 79.3279 10.9278 79.3279 13.7851C79.3279 16.6423 81.6442 18.9587 84.5015 18.9587C87.3588 18.9587 89.6751 16.6423 89.6751 13.7851Z" fill="#0091E0"/>
<path d="M44.8374 89.6639H43.1128C42.1604 89.6639 41.3882 90.4359 41.3882 91.3885C41.3882 92.3408 42.1602 93.1131 43.1128 93.1131H44.8374C45.7897 93.1131 46.562 92.341 46.562 91.3885C46.562 90.4359 45.7899 89.6639 44.8374 89.6639Z" fill="#0091E0"/>
<path d="M65.6512 89.6639H62.1819C61.2295 89.6639 60.4573 90.4359 60.4573 91.3885C60.4573 92.3408 61.2293 93.1131 62.1819 93.1131H65.6512C66.6036 93.1131 67.3758 92.341 67.3758 91.3885C67.3758 90.4359 66.6038 89.6639 65.6512 89.6639Z" fill="#0091E0"/>
<path d="M62.1517 56.8981C62.1517 55.9457 61.3797 55.1735 60.4271 55.1735H56.958C56.0056 55.1735 55.2334 55.9455 55.2334 56.8981C55.2334 57.8504 56.0054 58.6227 56.958 58.6227H60.4271C61.3797 58.6225 62.1517 57.8504 62.1517 56.8981Z" fill="#0091E0"/>
<path d="M55.0483 43.1018H58.5177C59.47 43.1018 60.2423 42.3298 60.2423 41.3772C60.2423 40.4249 59.4702 39.6526 58.5177 39.6526H55.0483C54.096 39.6526 53.3237 40.4247 53.3237 41.3772C53.3237 42.3298 54.0958 43.1018 55.0483 43.1018Z" fill="#0091E0"/>
<path d="M46.9627 48.3933C47.7039 48.3927 48.3619 47.9194 48.5981 47.2169C48.8866 46.3612 49.3631 45.5808 49.9925 44.9332C50.6561 44.2494 50.6399 43.1574 49.9562 42.4938C49.2724 41.8301 48.1804 41.8463 47.5168 42.5301C46.5298 43.5491 45.782 44.7751 45.3274 46.119C45.152 46.6453 45.2401 47.2237 45.5638 47.674C45.8877 48.1245 46.4081 48.3919 46.9627 48.3933Z" fill="#0091E0"/>
<path d="M94.7955 63.6175C93.9873 64.1211 93.7404 65.1846 94.244 65.9928C94.7939 66.8762 95.2532 67.8128 95.6148 68.7884C95.8651 69.4651 96.5101 69.9144 97.2316 69.915C97.7958 69.9142 98.3238 69.6378 98.646 69.1746C98.9681 68.7114 99.0437 68.1202 98.8482 67.5908C98.4057 66.3966 97.8436 65.2501 97.1708 64.1688C96.6672 63.3608 95.6037 63.1139 94.7955 63.6175Z" fill="#0091E0"/>
<path d="M55.2452 89.6639H51.7759C50.8235 89.6639 50.0513 90.4359 50.0513 91.3885C50.0513 92.3408 50.8233 93.1131 51.7759 93.1131H55.2452C56.1976 93.1131 56.9698 92.341 56.9698 91.3885C56.9698 90.4359 56.1977 89.6639 55.2452 89.6639Z" fill="#0091E0"/>
<path d="M98.3591 73.2904C97.4126 73.2441 96.6059 73.97 96.5526 74.9163C96.5022 75.9546 96.3459 76.9849 96.0861 77.9914C95.9529 78.5083 96.0666 79.0577 96.3936 79.4792C96.7208 79.901 97.2246 80.1475 97.7583 80.147C98.544 80.1454 99.2296 79.614 99.4273 78.8535C99.7445 77.6196 99.9358 76.3569 99.9981 75.0845C100.038 74.1378 99.3055 73.3365 98.3591 73.2904Z" fill="#0091E0"/>
<path d="M72.4938 56.898C72.4639 55.9334 71.6704 55.1683 70.7054 55.1734H67.364C66.4116 55.1734 65.6394 55.9455 65.6394 56.898C65.6394 57.8504 66.4114 58.6226 67.364 58.6226H70.8333C71.2842 58.6201 71.7148 58.4355 72.0275 58.1108C72.3403 57.7859 72.5085 57.3485 72.4938 56.898Z" fill="#0091E0"/>
<path d="M95.7823 83.2468C95.0274 82.6668 93.9453 82.8081 93.3647 83.5623C92.7291 84.3891 92.0131 85.1508 91.2276 85.8367C90.6856 86.309 90.4936 87.0682 90.746 87.7416C90.9984 88.415 91.6419 88.8608 92.361 88.8606C92.7779 88.8612 93.1807 88.71 93.4945 88.4353C94.4521 87.5998 95.3248 86.6714 96.0997 85.6642C96.6792 84.9087 96.5371 83.8269 95.7823 83.2468Z" fill="#0091E0"/>
<path d="M82.9756 56.9106C82.9821 55.9582 82.2153 55.1807 81.2629 55.1742L77.7717 55.1735C76.8194 55.1735 76.0471 55.9455 76.0471 56.8981C76.0471 57.8504 76.8192 58.6227 77.7717 58.6227L81.2157 58.6234H81.2393C82.1918 58.6299 82.9692 57.8631 82.9756 56.9106Z" fill="#0091E0"/>
<path d="M50.2385 57.4623C51.0092 57.4631 51.6867 56.9524 51.8983 56.2114C52.1098 55.4704 51.8043 54.679 51.1497 54.2725C50.3823 53.7951 49.7306 53.1531 49.2416 52.393C48.7269 51.5912 47.6594 51.3586 46.8577 51.8735C46.056 52.3883 45.8233 53.4557 46.3383 54.2575C47.1064 55.448 48.1283 56.4539 49.3309 57.203C49.603 57.3726 49.9176 57.4625 50.2385 57.4623Z" fill="#0091E0"/>
<path d="M76.0574 89.6639H72.5881C71.6358 89.6639 70.8635 90.4359 70.8635 91.3885C70.8635 92.3408 71.6356 93.1131 72.5881 93.1131H76.0574C77.0098 93.1131 77.7821 92.341 77.7821 91.3885C77.7819 90.4359 77.0098 89.6639 76.0574 89.6639Z" fill="#0091E0"/>
<path d="M90.9818 61.7894C91.7332 61.7902 92.3988 61.3044 92.6269 60.5886C92.8551 59.8726 92.5937 59.0914 91.9805 58.6571C90.9426 57.9224 89.8341 57.2931 88.6714 56.7786C88.108 56.5295 87.4543 56.6 86.9569 56.9634C86.4596 57.3267 86.1937 57.928 86.2597 58.5405C86.3257 59.1529 86.7135 59.6837 87.2769 59.9328C88.2293 60.3545 89.1369 60.8705 89.9867 61.4729C90.2776 61.6789 90.6253 61.7894 90.9818 61.7894Z" fill="#0091E0"/>
<path d="M85.8387 88.9036C84.8498 89.2263 83.8308 89.448 82.7972 89.5655C81.8888 89.6684 81.2183 90.4623 81.2693 91.3752C81.3203 92.2881 82.0748 93.0025 82.989 93.0035C83.0543 93.0035 83.1195 93 83.1844 92.9926C84.4503 92.8486 85.6982 92.5773 86.9096 92.1824C87.8151 91.8867 88.3093 90.9128 88.0136 90.0073C87.7178 89.1021 86.744 88.6078 85.8387 88.9036Z" fill="#0091E0"/>
<path d="M65.5315 43.1018H67.2561C68.2084 43.1018 68.9807 42.3298 68.9807 41.3772C68.9807 40.4249 68.2086 39.6526 67.2561 39.6526H65.5315C64.5791 39.6526 63.8069 40.4247 63.8069 41.3772C63.8071 42.3298 64.5791 43.1018 65.5315 43.1018Z" fill="#0091E0"/>
</g>
<defs>
<clipPath id="clip0">
<rect width="100" height="100" fill="white"/>
</clipPath>
</defs>
</svg>
