<svg width="100" height="100" viewBox="0 0 100 100" fill="none" xmlns="http://www.w3.org/2000/svg">
<g clip-path="url(#clip0)">
<path d="M92.3852 43.5189C93.2053 43.5191 93.8703 42.854 93.8703 42.0339V38.7216H94.5893C95.4094 38.7216 96.0744 38.0566 96.0744 37.2365V30.9945C96.0744 30.1744 95.4094 29.5093 94.5893 29.5093H93.8703V19.8261C93.8703 19.5199 93.7756 19.221 93.5992 18.9706L86.3357 8.66284V1.5478C86.3357 0.73452 85.7092 0.0253402 84.8963 0.00112142C84.0553 -0.0242692 83.3654 0.650145 83.3654 1.48569V8.66284L76.1021 18.9708C75.9258 19.221 75.8311 19.5199 75.8311 19.8263V29.5095H75.1121C74.292 29.5095 73.627 30.1745 73.627 30.9947V37.2365C73.627 38.0566 74.292 38.7216 75.1121 38.7216H75.8311V90.7884H75.1121C74.292 90.7884 73.627 91.4534 73.627 92.2736V98.5155C73.627 99.3357 74.292 100.001 75.1121 100.001H94.5895C95.4096 100.001 96.0746 99.3357 96.0746 98.5155V92.2738C96.0746 91.4536 95.4096 90.7886 94.5895 90.7886H93.8705V48.9648C93.8705 48.1447 93.2055 47.4796 92.3854 47.4796C91.5652 47.4796 90.9002 48.1447 90.9002 48.9648V90.7884H78.8014V38.7214H90.9002V42.0337C90.9 42.8538 91.565 43.5189 92.3852 43.5189ZM78.801 20.2968H78.8012L84.8504 11.7119L90.8998 20.2968V29.5093H89.8041V25.4103C89.8041 24.9507 89.5912 24.5167 89.2277 24.2357L85.759 21.5523C85.224 21.1384 84.4766 21.1384 83.9416 21.5523L80.4729 24.2357C80.1094 24.5169 79.8965 24.9507 79.8965 25.4103V29.5093H78.8008V20.2968H78.801ZM86.8342 26.139V29.5093H82.867V26.139L84.8506 24.6046L86.8342 26.139ZM92.3852 93.7587H93.1041V97.0302H76.5969V93.7587H77.3158H92.3852ZM76.5973 35.7511V32.4796H81.382H88.3195H93.1045V35.7511H76.5973Z" fill="#0091E0"/>
<path d="M63.8933 69.8098L58.8089 65.8766C58.2737 65.4625 57.5263 65.4625 56.9913 65.8766L51.9069 69.8098C51.5435 70.091 51.3306 70.5248 51.3306 70.9844V79.1696C51.3306 79.9897 51.9956 80.6547 52.8157 80.6547H62.9847C63.8048 80.6547 64.4698 79.9897 64.4698 79.1696V70.9844C64.4696 70.5248 64.2567 70.091 63.8933 69.8098ZM54.3005 77.6844V71.7131L57.8997 68.9287L61.4989 71.7131V77.6844H54.3005Z" fill="#0091E0"/>
<path d="M23.6653 69.8098L18.5809 65.8766C18.0459 65.4627 17.2985 65.4627 16.7635 65.8766L11.6792 69.8098C11.3157 70.091 11.1028 70.5248 11.1028 70.9844V79.1695C11.1028 79.9896 11.7678 80.6547 12.5879 80.6547H22.7567C23.5768 80.6547 24.2418 79.9896 24.2418 79.1695V70.9844C24.2416 70.5246 24.0288 70.091 23.6653 69.8098ZM21.2713 77.6844H14.0729V71.7131L17.6721 68.9287L21.2713 71.7131V77.6844Z" fill="#0091E0"/>
<path d="M71.2064 64.4127L64.6125 57.8786C65.4677 56.718 66.7205 54.7391 67.4277 52.3184C67.4451 52.2586 67.4589 52.1977 67.4689 52.1362L67.971 48.9938C67.9826 48.9215 67.9886 48.8483 67.9894 48.775C68.0097 46.8311 67.5529 44.9719 66.6291 43.2438C63.0015 36.5184 43.6128 27.6387 39.271 25.7153V23.1555C44.0628 22.5514 48.0027 19.0551 49.1111 14.2405C49.2529 13.6246 48.9892 12.9864 48.4542 12.65C47.9193 12.3135 47.2296 12.3528 46.7363 12.7477C45.4533 13.7739 43.9068 14.3162 42.2638 14.3162C38.3107 14.3162 35.0945 11.1002 35.0945 7.14711C35.0945 5.50414 35.6369 3.95766 36.663 2.67465C37.058 2.18109 37.0968 1.49164 36.7607 0.956679C36.4242 0.421718 35.7857 0.158046 35.1703 0.299843C29.8664 1.52074 26.1619 6.17777 26.1619 11.625C26.1619 17.5313 30.5906 22.4194 36.3011 23.1512V25.7147C34.3888 26.5686 29.6753 28.7246 24.7314 31.377C15.9603 36.0823 10.648 40.0756 8.94038 43.2489C8.01948 44.9719 7.56265 46.8311 7.58276 48.7752C7.58354 48.8485 7.5896 48.9217 7.60112 48.9942L8.10327 52.1366C8.11323 52.1981 8.1269 52.259 8.14429 52.3188C8.85171 54.7399 10.1042 56.7186 10.9595 57.8791L4.36538 64.4131C4.08394 64.6918 3.92554 65.0717 3.92554 65.468V98.5151C3.92554 99.3352 4.59058 100 5.41069 100H70.1611C70.9812 100 71.6462 99.3352 71.6462 98.5151V65.4676C71.646 65.0713 71.4876 64.6916 71.2064 64.4127ZM29.1318 11.6245C29.1318 8.89965 30.3765 6.44066 32.3908 4.84457C32.2148 5.59613 32.124 6.36898 32.124 7.14672C32.124 12.7375 36.6724 17.2862 42.2636 17.2862C43.0414 17.2862 43.8144 17.1954 44.5658 17.0194C42.9697 19.0336 40.5107 20.2784 37.7859 20.2784C33.014 20.2786 29.1318 16.3963 29.1318 11.6245ZM45.2578 97.0299H30.3138V81.5282L37.7859 73.9227L45.2578 81.5282V97.0299ZM68.6761 97.0299H68.6759H48.2281V80.9205C48.2281 80.5313 48.0751 80.1575 47.8023 79.8797L38.8691 70.7869C38.7222 70.6373 38.5511 70.5102 38.357 70.4311C37.774 70.194 37.1386 70.3432 36.7265 70.7627L27.7693 79.8799C27.4964 80.1575 27.3435 80.5315 27.3435 80.9207V97.0299H6.89585V66.087L13.566 59.4772H27.163C27.9832 59.4772 28.6482 58.8122 28.6482 57.992C28.6482 57.1719 27.9832 56.5069 27.163 56.5069H13.6498C12.997 55.6778 11.7041 53.8442 11.021 51.5723L10.5521 48.6379C10.5537 47.2194 10.8835 45.9135 11.5578 44.6526C14.3671 39.4319 30.8906 31.3311 37.7796 28.3049C39.3953 29.0192 44.5712 31.3547 50.0275 34.3168C54.4697 36.7284 62.1939 41.278 64.0123 44.6493C64.6884 45.9139 65.0183 47.2198 65.0199 48.6381L64.5509 51.5725C63.8677 53.8452 62.574 55.6791 61.9222 56.5071H34.0941C33.274 56.5071 32.6089 57.1721 32.6089 57.9922C32.6089 58.8123 33.274 59.4774 34.0941 59.4774H62.006L68.6761 66.0872V97.0299Z" fill="#0091E0"/>
</g>
<defs>
<clipPath id="clip0">
<rect width="100" height="100" fill="white"/>
</clipPath>
</defs>
</svg>
